<?xml version="1.0" encoding="UTF-8"?>
<svg id="Layer_1" xmlns="http://www.w3.org/2000/svg" version="1.1" viewBox="0 0 290.92 265.31">
  <!-- Generator: Adobe Illustrator 30.3.0, SVG Export Plug-In . SVG Version: 2.1.3 Build 182)  -->
  <defs>
    <style>
      .st0 {
        fill: gray;
      }
    </style>
  </defs>
  <g>
    <path class="st0" d="M78.37,251.6c-2.38,1.43-6.44,2.21-8.94,2.21-9.84,0-16.48-5.62-16.48-14.92,0-4.71,1.85-8.45,5-11.03,3.08-2.54,7.26-3.94,11.85-3.94,3.81,0,7.5.98,9.47,1.68-.41,1.93-.78,4.1-.78,6.23h-1.27v-2.95c0-1.15-1.64-1.84-3.53-2.54-1.31-.45-3.07-.7-4.59-.7-7.71,0-11.77,5.62-11.77,12.59,0,8.12,5.37,13.37,13.49,13.37,2.95,0,6.44-1.07,8.32-2.46l.37.41-1.15,2.05h0Z"/>
    <path class="st0" d="M128.88,230.73c0-1.56-.04-2.87-.16-4.1h-6.35c-1.23,0-1.56.37-1.64,1.35l-.16,3.24h-1.27c0-2.21-.08-4.47-.29-6.6,2.95,0,5.9.12,8.86.12h5.95c2.95,0,5.9-.12,8.86-.12-.21,2.13-.29,4.39-.29,6.6h-1.27l-.16-3.24c-.08-.98-.41-1.35-1.64-1.35h-6.35c-.12,1.23-.16,2.54-.16,4.1v17.34c0,1.56.08,2.62.37,3.08.25.41.74.57,1.72.62l1.97.12v1.23c-2.13-.08-4.06-.12-5.95-.12-2.01,0-3.94.04-6.07.12v-1.23l1.97-.12c.98-.04,1.48-.2,1.72-.62.29-.45.37-1.52.37-3.08v-17.34h-.03Z"/>
    <path class="st0" d="M156.47,230.73c0-1.56-.04-2.87-.16-4.1h-6.35c-1.23,0-1.56.37-1.64,1.35l-.16,3.24h-1.27c0-2.21-.08-4.47-.29-6.6,2.95,0,5.9.12,8.86.12h5.94c2.95,0,5.9-.12,8.86-.12-.21,2.13-.29,4.39-.29,6.6h-1.27l-.16-3.24c-.08-.98-.41-1.35-1.64-1.35h-6.35c-.12,1.23-.16,2.54-.16,4.1v17.34c0,1.56.08,2.62.37,3.08.25.41.74.57,1.72.62l1.97.12v1.23c-2.13-.08-4.06-.12-5.95-.12-2.01,0-3.94.04-6.07.12v-1.23l1.97-.12c.98-.04,1.48-.2,1.72-.62.29-.45.37-1.52.37-3.08v-17.34h-.02Z"/>
    <path class="st0" d="M188.38,225.65c7.63,0,11.28,5.45,11.28,13.57,0,7.54-3.32,12.87-10.17,12.87-8.12,0-11.48-7.54-11.48-14.72,0-6.72,3.24-11.73,10.37-11.73h0ZM188.17,253.82c8.98,0,15.87-7.05,15.87-15.87s-6.23-14.02-15.01-14.02c-9.51,0-15.42,6.52-15.42,14.96,0,9.18,6.23,14.92,14.55,14.92h0Z"/>
    <path class="st0" d="M211.99,229.66c0-1.56-.08-2.62-.37-3.08-.25-.41-.74-.53-1.72-.61l-1.8-.12v-1.23c1.8.04,3.44.12,4.92.12.74,0,1.48-.08,2.21-.12l19.6,24.19h.12v-19.15c0-1.56-.08-2.62-.37-3.08-.25-.41-.74-.53-1.72-.61l-1.8-.12v-1.23c1.64.04,3.28.12,4.76.12,1.64,0,3.12-.08,4.92-.12v1.23l-1.8.12c-.98.08-1.48.2-1.72.61-.29.45-.37,1.52-.37,3.08v22.63c0,.49.08,1.02.12,1.52l-3.69-.66-19.31-23.99h-.08v18.9c0,1.56.08,2.62.37,3.08.25.41.74.53,1.72.62l1.8.12v1.23c-1.8-.04-3.28-.12-4.92-.12-1.48,0-3.12.08-4.76.12v-1.23l1.8-.12c.98-.08,1.48-.2,1.72-.62.29-.45.37-1.52.37-3.08v-18.41h0Z"/>
  </g>
  <g>
    <path class="st0" d="M85.64,264.53c1.92.05,3.79.29,5.59.72,3.8-1.87,8.11-2.89,12.64-2.77,4.11.1,7.98,1.11,11.43,2.83-4.2-2.92-9.28-4.68-14.77-4.81-5.47-.13-10.59,1.36-14.92,4.04h.04-.01Z"/>
    <g>
      <g>
        <path class="st0" d="M100.53,225.76c-.11.03-.18.13-.18.23v.03h0v.03c.03.11.13.18.23.18h.03c5.41-.66,9.29.31,11.53,2.89,3.46,3.99,2.26,11.02,1.23,14.85l.46.16c.2-.47,4.77-11.48.26-16.71-2.42-2.8-6.98-3.36-13.57-1.67h0Z"/>
        <path class="st0" d="M115.11,241.63c-1.07,5.34-3.21,8.72-6.37,10.04-4.63,1.93-10.43-.83-14.49-3.5l-.29.39c.38.33,9.4,8.13,15.78,5.49,3.42-1.41,5.39-5.57,5.85-12.36v-.02c0-.11-.08-.21-.2-.24h-.05c-.11,0-.22.08-.24.2h.01Z"/>
        <path class="st0" d="M88.78,226.41c-4.41,5.31.36,16.24.57,16.7l.46-.16c-1.34-4.66-2.26-11.03.96-14.87,2.19-2.62,6.05-3.66,11.47-3.1h.03c.11,0,.21-.08.24-.19v-.03h0v-.03c0-.11-.08-.21-.19-.24-6.62-1.57-11.17-.93-13.53,1.92h0Z"/>
      </g>
      <g>
        <g>
          <path class="st0" d="M104.61,238.04c-.03-.12-.15-.2-.28-.18-3.61.61-6.41,1.6-8.4,2.92.09-.51.19-1.02.19-1.5,0-1.31-.34-2.53-1.02-3.62-1.61-2.58-5.14-4.5-10.48-5.71-.12-.03-.25.04-.29.17,0,.02-.01.05-.01.07,0,.1.06.19.16.23,6.09,2.24,9.17,5.53,9.17,9.78,0,.33-.04.68-.08,1.02-2.01-1.1-4.71-1.88-8.09-2.3-.13-.02-.25.07-.27.2v.04c0,.11.07.21.18.24,2.83.74,5.08,1.77,6.74,3.05.06-.02.11-.05.17-.07l.51-.11h-.07.07c.64,0,1.25.38,1.57,1.01.35.69.3,1.5-.12,2.07l-.16.22-.27.07c-.08.02-.14.05-.22.08-.12,2.08-.82,4.45-2.11,7.05-.02.04-.03.07-.03.11,0,.08.04.17.12.21.11.06.25.03.32-.08,1.97-2.94,3.16-5.59,3.6-7.89,3.01,1.65,4.56,4.83,4.56,9.53,0,.89-.05,1.84-.17,2.85v.03c0,.12.08.22.2.24.13.02.25-.06.28-.18.59-2.41.88-4.55.88-6.4,0-4.27-1.6-7.01-4.7-8.26,1.35-1.5,4.52-3.56,7.87-4.59.1-.03.17-.13.17-.23v-.06h0Z"/>
          <polygon class="st0" points="92.73 242.27 92.8 242.27 92.8 242.27 92.73 242.27"/>
        </g>
        <path class="st0" d="M92.86,242.83h0ZM92.55,242.87c-6.78,2.54-6.95,15.16-6.95,15.7l.48.04.05-.38c.54-3.75,1.66-11.54,7.54-13.13l.08-.02.05-.07c.19-.25.28-.56.28-.87,0-.22-.05-.44-.14-.63-.21-.42-.6-.67-1.09-.68l-.31.04h0Z"/>
      </g>
    </g>
  </g>
  <g>
    <rect class="st0" x="29.2" y="38.04" width="109.7" height="5.09" transform="translate(-4.08 71.32) rotate(-45)"/>
    <rect class="st0" x="36.61" y="45.44" width="109.7" height="5.09" transform="translate(-7.14 78.72) rotate(-45)"/>
    <path class="st0" d="M112.12,45.71l27.32-27.32-3.6-3.6L58.27,92.37l3.6,3.6,32.48-32.48c1.66-7.4,6.22-15.32,17.77-17.77h0Z"/>
    <rect class="st0" x="207.07" y="-14.27" width="5.09" height="109.7" transform="translate(32.74 160.17) rotate(-45.02)"/>
    <rect class="st0" x="199.67" y="-6.87" width="5.09" height="109.7" transform="translate(25.3 157.04) rotate(-45)"/>
    <path class="st0" d="M154.23,18.4l27.32,27.32c11.55,2.45,16.12,10.37,17.77,17.77l32.48,32.48,3.6-3.6L157.83,14.8l-3.6,3.6Z"/>
    <path class="st0" d="M158.59,30.35l-8.16-8.16-3.6,3.6,2.32,2.32c3.58.25,6.72,1.08,9.44,2.24Z"/>
    <path class="st0" d="M80.46,114.56l3.6,3.6,8.02-8.02c-.84-1.63-1.57-3.32-2.17-5.02l-9.45,9.45h0Z"/>
    <path class="st0" d="M93.49,71.94l-27.82,27.82,3.6,3.6,22.38-22.38c.69-1.01,1.47-1.97,2.36-2.86,0,0-.49-2.53-.51-6.18h0Z"/>
    <path class="st0" d="M87.86,121.96l3.6,3.6,6.7-6.7c-1.15-1.26-2.23-2.59-3.21-3.99,0,0-7.09,7.09-7.09,7.09Z"/>
    <path class="st0" d="M146.83,25.79l-3.6-3.6-8.16,8.16c2.72-1.16,5.85-1.99,9.44-2.24l2.32-2.32Z"/>
    <path class="st0" d="M87.96,92.27l-14.9,14.9,3.6,3.6,11.68-11.69c-.38-2.3-.52-4.59-.38-6.81Z"/>
    <path class="st0" d="M187.41,140.36l3.6-3.6-8.82-8.83c-1.87.66-3.82,1.13-5.82,1.38l11.05,11.05h0Z"/>
    <path class="st0" d="M194.81,132.96l3.6-3.6-6.8-6.8c-1.34,1.09-2.77,2.08-4.25,2.95l7.45,7.45h0Z"/>
    <path class="st0" d="M202.21,125.56l3.6-3.6-7.09-7.09c-.98,1.4-2.05,2.73-3.21,3.99,0,0,6.7,6.7,6.7,6.7Z"/>
    <path class="st0" d="M102.66,136.76l3.6,3.6,11.05-11.05c-2.01-.25-3.95-.72-5.82-1.38l-8.83,8.83Z"/>
    <path class="st0" d="M95.26,129.36l3.6,3.6,7.45-7.45c-1.49-.87-2.91-1.86-4.25-2.95l-6.8,6.8h0Z"/>
    <path class="st0" d="M180.02,147.76l3.6-3.6-15.01-15.01c-3.74-.61-7.62-2.01-11.57-4.37l22.99,22.98h-.01Z"/>
    <path class="st0" d="M110.05,144.16l3.6,3.6,22.98-22.98c-3.95,2.36-7.83,3.76-11.57,4.37l-15.01,15.01Z"/>
    <path class="st0" d="M209.61,118.16l3.6-3.6-9.45-9.45c-.6,1.71-1.33,3.39-2.17,5.02l8.02,8.02h0Z"/>
    <path class="st0" d="M202.04,80.99l22.37,22.37,3.6-3.6-27.82-27.82c-.03,3.66-.51,6.18-.51,6.18.89.89,1.68,1.86,2.37,2.87h-.01Z"/>
    <path class="st0" d="M205.32,99.08l11.68,11.69,3.6-3.6-14.9-14.9c.14,2.23,0,4.51-.38,6.81Z"/>
  </g>
  <g>
    <rect class="st0" x="109.34" y="126.88" width="67.68" height="5.09" transform="translate(-49.58 139.15) rotate(-45)"/>
    <rect class="st0" x="147.94" y="95.59" width="5.09" height="67.68" transform="translate(-47.44 144.32) rotate(-45)"/>
  </g>
  <g>
    <path class="st0" d="M0,212.41v-1.36c1.06,0,1.71-.06,1.97-.13s.5-.21.72-.42c.22-.21.54-.74.95-1.61.24-.49,1.11-2.37,2.61-5.62l5.01-11.29c.55-1.24,1.72-4,3.51-8.29h1.28l8.56,20.08c1.39,3.26,2.31,5.3,2.77,6.13.25.47.53.77.83.92s.98.23,2.03.24v1.36c-2.09-.13-3.54-.2-4.37-.2l-6.45.2v-1.36c1.49-.03,2.4-.07,2.72-.14.32-.07.54-.16.65-.29.11-.13.17-.28.17-.47,0-.29-.09-.67-.28-1.14l-2.46-6.13h-11.58l-2.17,5.14c-.39.92-.58,1.6-.58,2.02,0,.19.05.34.16.46.15.17.37.29.68.36.49.11,1.36.17,2.6.18v1.36c-2.26-.12-3.95-.18-5.07-.18-1.3,0-2.72.06-4.25.18h0ZM9.33,201.18h10.09l-4.98-12.05-5.11,12.05Z"/>
    <path class="st0" d="M33.86,185.26v-1.28c2.18.09,4.2.14,6.07.14s3.78-.05,5.65-.14v1.28c-1.57.03-2.52.1-2.87.21s-.58.27-.7.47c-.17.27-.28.91-.32,1.94-.02.27-.05,2.16-.1,5.68v7.4c0,2.87.18,4.76.55,5.67s.95,1.67,1.75,2.27c.61.45,1.44.82,2.48,1.09s2.2.41,3.48.41c1.49,0,2.82-.18,3.98-.55,1.16-.37,2.03-.81,2.61-1.34s1.01-1.12,1.3-1.77c.29-.65.49-1.55.62-2.69.13-1.14.19-2.58.19-4.33v-6.16c0-1.81-.03-3.59-.1-5.32-.03-1.27-.12-2.02-.27-2.25s-.4-.41-.75-.52-1.3-.18-2.87-.21v-1.28c2.2.09,3.8.14,4.81.14.92,0,2.58-.05,4.97-.14v1.28c-1.58.03-2.54.1-2.88.21s-.57.27-.71.47c-.16.27-.26.91-.3,1.94,0,.27-.04,2.16-.08,5.68v6.7c0,3.29-.23,5.59-.69,6.9s-1.31,2.46-2.53,3.46c-.92.75-2.11,1.33-3.55,1.74-1.45.41-3.05.62-4.81.62-2.06,0-3.84-.24-5.35-.73-1.51-.49-2.66-1.13-3.44-1.92-.79-.79-1.33-1.6-1.62-2.43-.37-1.09-.56-2.93-.56-5.5v-8.84c0-1.81-.02-3.59-.06-5.32-.04-1.27-.14-2.02-.29-2.25s-.4-.41-.74-.52-1.3-.18-2.89-.21h.02Z"/>
    <path class="st0" d="M68.3,211.42c.21-1.28.34-3.35.38-6.22h1.34c.07,1.95.18,3.1.33,3.45.15.35.52.73,1.11,1.13.59.4,1.38.76,2.37,1.07.99.31,1.94.47,2.87.47,1.35,0,2.59-.31,3.73-.93,1.14-.62,1.96-1.44,2.49-2.45.52-1.01.78-2.09.78-3.24,0-.88-.13-1.64-.39-2.28s-.66-1.16-1.19-1.55-1.19-.67-1.98-.83c-.49-.08-1.48-.22-2.96-.41-1.48-.19-2.74-.4-3.78-.63-1.39-.43-2.41-.93-3.06-1.5-.65-.57-1.18-1.33-1.59-2.26-.41-.93-.61-1.94-.61-3.02,0-1.57.41-3.05,1.23-4.45.82-1.39,2.03-2.47,3.64-3.25,1.61-.77,3.35-1.16,5.23-1.16,1.13,0,2.37.15,3.71.45s2.59.74,3.75,1.31c-.19.84-.32,1.62-.4,2.35-.08.73-.14,1.8-.18,3.21h-1.34c-.04-2.05-.1-3.18-.18-3.36-.33-.48-.79-.91-1.36-1.3-1.38-.77-2.81-1.16-4.31-1.16-1.94,0-3.49.59-4.64,1.77-1.16,1.18-1.73,2.7-1.73,4.58,0,1.13.21,2.01.62,2.63.41.62,1.15,1.12,2.22,1.49.73.25,1.94.49,3.6.72,1.67.22,3.17.46,4.5.72,1.25.37,2.18.82,2.78,1.33s1.09,1.19,1.48,2.02c.39.83.58,1.81.58,2.93,0,2.66-1.1,4.97-3.3,6.95-2.2,1.98-5.05,2.96-8.55,2.96-2.64,0-5.04-.52-7.19-1.56v.02Z"/>
    <path class="st0" d="M93.07,190.6h-1.24c-.01-3.19-.08-5.4-.2-6.63,1.45.05,3.74.12,6.85.2,2.52.05,4.2.08,5.04.08.91,0,3.01-.04,6.31-.12,2.39-.05,4.13-.11,5.23-.16-.16,1.5-.27,3.7-.32,6.63h-1.28l-.16-1.92c-.11-1.16-.18-1.82-.22-1.98-.04-.16-.1-.27-.17-.34-.07-.07-.18-.12-.33-.16-.19-.04-.85-.09-2-.16s-2.06-.1-2.72-.1h-2.44c-.13,1.28-.2,3.01-.2,5.18v11.7c0,1.81.02,3.58.06,5.3.04,1.27.14,2.02.29,2.26.15.24.4.42.74.53s1.3.18,2.89.21v1.28c-2.39-.11-4.18-.16-5.39-.16-.52,0-2.6.05-6.25.16v-1.28c1.58-.03,2.54-.1,2.89-.21s.58-.27.7-.47c.17-.27.28-.91.32-1.94,0-.28.03-2.17.1-5.68v-11.66c0-.56-.01-1.17-.04-1.84l-.12-3.38h-2.98c-1.72,0-3.09.07-4.1.2-.32.04-.53.13-.62.26-.15.23-.28.96-.4,2.18l-.22,2.02h-.02Z"/>
    <path class="st0" d="M118.85,185.26v-1.28c.52,0,1.31.03,2.38.05l3.84.09c.76,0,1.94-.02,3.54-.07,2.08-.07,3.29-.11,3.62-.11,2.55,0,4.41.23,5.58.68s2.07,1.19,2.71,2.21.96,2.13.96,3.33c0,1.12-.3,2.24-.9,3.34-.6,1.11-1.47,2.03-2.61,2.76s-2.62,1.3-4.45,1.7c.33.47,1.12,1.51,2.36,3.12l5.05,6.63c1.44,1.86,2.28,2.89,2.52,3.1.12.09.24.16.36.2.2.07.64.1,1.32.1v1.28c-1.01-.09-1.89-.14-2.65-.14s-1.75.05-2.89.14c-.87-1-2.33-2.95-4.38-5.86-1.14-1.61-2.14-2.96-3.01-4.04-1.41-1.79-2.74-3.41-4.02-4.86l.2-.6c.69.04,1.22.06,1.58.06,2.43,0,4.27-.57,5.53-1.72,1.25-1.15,1.88-2.66,1.88-4.54,0-1.64-.54-2.95-1.62-3.91-1.08-.97-2.72-1.45-4.9-1.45-1.37,0-2.72.21-4.04.62-.05.72-.09,1.39-.12,2.02-.01.19-.06,2.13-.14,5.82v8.88c0,1.81.03,3.58.1,5.3.03,1.27.12,2.02.27,2.26.15.24.4.42.75.53.35.11,1.3.18,2.87.21v1.28c-1.9-.09-3.64-.14-5.23-.14-1.28,0-3.44.05-6.47.14v-1.28c1.57-.03,2.52-.1,2.87-.21.35-.11.58-.27.72-.47.16-.27.26-.91.3-1.94.02-.28.05-2.17.1-5.68v-9.26c0-1.81-.02-3.59-.06-5.32-.04-1.27-.14-2.02-.29-2.25s-.4-.41-.74-.52-1.31-.18-2.89-.21h0Z"/>
    <path class="st0" d="M148.06,212.41v-1.36c1.06,0,1.71-.06,1.97-.13s.5-.21.72-.42c.22-.21.54-.74.95-1.61.24-.49,1.11-2.37,2.61-5.62l5.01-11.29c.55-1.24,1.72-4,3.51-8.29h1.28l8.56,20.08c1.39,3.26,2.31,5.3,2.77,6.13.25.47.53.77.83.92s.98.23,2.04.24v1.36c-2.09-.13-3.54-.2-4.37-.2l-6.45.2v-1.36c1.5-.03,2.4-.07,2.72-.14.32-.07.54-.16.65-.29.11-.13.17-.28.17-.47,0-.29-.09-.67-.28-1.14l-2.46-6.13h-11.59l-2.17,5.14c-.39.92-.58,1.6-.58,2.02,0,.19.05.34.16.46.15.17.37.29.68.36.49.11,1.36.17,2.6.18v1.36c-2.26-.12-3.95-.18-5.07-.18-1.3,0-2.72.06-4.25.18h0ZM157.39,201.18h10.09l-4.98-12.05-5.11,12.05Z"/>
    <path class="st0" d="M183.87,212.41v-1.04c.82-.39,1.34-.69,1.57-.92.13-.12.22-.27.28-.46.12-.37.2-1.17.24-2.4.07-1.83.1-2.91.1-3.26v-10.76c0-1.81-.02-3.59-.06-5.32-.04-1.27-.14-2.02-.29-2.25s-.4-.41-.74-.52c-.34-.11-1.31-.18-2.89-.21v-1.28c3.26.09,5.27.14,6.05.14.85,0,2.77-.05,5.75-.14v1.28c-1.59.03-2.55.1-2.89.21s-.58.27-.71.47c-.16.27-.26.91-.3,1.94-.02.27-.05,2.16-.1,5.68v13.44c0,1.4.03,2.54.1,3.42,1.52.09,3.03.14,4.52.14,3.76,0,6.4-.24,7.91-.72.17-.4.33-.86.46-1.38l.8-3.32h1.34c-.29,1.99-.58,4.32-.86,7.01-.55.11-.98.17-1.3.2-.69.04-1.76.06-3.2.06l-11.85-.14c-1.28,0-2.58.05-3.9.14h-.03Z"/>
    <path class="st0" d="M221.13,211.12v1.28c-2.84-.09-4.7-.14-5.6-.14l-6.17.14v-1.28c1.57-.03,2.52-.1,2.87-.21.35-.11.58-.27.72-.47.16-.27.26-.91.3-1.94.02-.28.05-2.17.1-5.68v-9.26c0-1.81-.02-3.59-.06-5.32-.04-1.27-.14-2.02-.29-2.25s-.4-.41-.74-.52c-.34-.11-1.3-.18-2.89-.21v-1.28c2.54.09,4.51.14,5.9.14s3.29-.05,5.88-.14v1.28c-1.58.03-2.54.1-2.88.21-.34.11-.57.27-.71.47-.16.27-.26.91-.3,1.94-.02.27-.05,2.16-.1,5.68v9.26c0,1.81.02,3.58.06,5.3.04,1.27.14,2.02.29,2.26.15.24.4.42.74.53.34.11,1.3.18,2.89.21h0Z"/>
    <path class="st0" d="M224.96,212.41v-1.36c1.06,0,1.71-.06,1.97-.13s.5-.21.72-.42c.22-.21.54-.74.95-1.61.24-.49,1.11-2.37,2.61-5.62l5.01-11.29c.55-1.24,1.72-4,3.51-8.29h1.28l8.56,20.08c1.39,3.26,2.31,5.3,2.77,6.13.25.47.53.77.83.92s.98.23,2.03.24v1.36c-2.08-.13-3.54-.2-4.37-.2l-6.45.2v-1.36c1.49-.03,2.4-.07,2.72-.14.32-.07.54-.16.65-.29.11-.13.17-.28.17-.47,0-.29-.09-.67-.28-1.14l-2.46-6.13h-11.59l-2.17,5.14c-.39.92-.58,1.6-.58,2.02,0,.19.05.34.16.46.15.17.37.29.68.36.49.11,1.36.17,2.6.18v1.36c-2.26-.12-3.95-.18-5.07-.18-1.3,0-2.72.06-4.25.18h0ZM234.29,201.18h10.09l-4.98-12.05-5.11,12.05Z"/>
    <path class="st0" d="M259.36,212.41v-1.28c1.41,0,2.34-.12,2.78-.32.19-.08.32-.21.4-.38.13-.27.23-.96.28-2.1.07-1.76.1-3.28.1-4.55v-16.28c0-.44-.03-.73-.08-.86-.11-.24-.35-.53-.72-.86-.24-.21-.52-.35-.83-.41s-1.01-.1-2.09-.11v-1.28c2.31.05,3.76.08,4.35.08,1.01,0,2.01-.03,3-.08,1.12,1.48,1.94,2.57,2.47,3.27l4.09,5.09,5.97,7.27c1.91,2.32,3.45,4.14,4.6,5.47.74.88,1.36,1.57,1.86,2.08v-14.58c0-1.3-.05-2.83-.14-4.59-.05-1.1-.14-1.79-.26-2.05-.09-.17-.23-.3-.42-.38-.44-.19-1.35-.29-2.74-.3v-1.28c1.57.05,3.17.08,4.78.08,1.52,0,2.9-.03,4.14-.08v1.28c-1.4,0-2.32.11-2.76.3-.19.08-.32.21-.4.4-.13.25-.23.95-.28,2.1-.07,1.76-.1,3.27-.1,4.54v9.62c0,1.95.03,5.58.1,10.9l-2.06-.6-.48-.1c-.08-.03-.15-.07-.22-.12-.09-.07-.35-.34-.76-.81-1.11-1.27-1.92-2.23-2.44-2.87l-2.58-3.3-14.19-17.14v15.52c0,1.32.05,2.88.14,4.67.05,1.12.14,1.81.26,2.06.09.19.23.32.42.4.44.19,1.35.29,2.74.3v1.28c-1.17-.09-2.47-.14-3.88-.14-1.55,0-3.23.05-5.04.14h-.01Z"/>
  </g>
</svg>