<svg xmlns="http://www.w3.org/2000/svg" width="91.855" height="30.445" viewBox="0 0 91.855 30.445">
  <g id="Group_5" data-name="Group 5" transform="translate(2767.854 136.445)">
    <path id="ACRF" d="M2745.322-486.546a2.392,2.392,0,0,0-.332-.689,8.13,8.13,0,0,0-.938-1.555,3.907,3.907,0,0,0-.953-1.41,3.791,3.791,0,0,0-1.917-1.036,5.348,5.348,0,0,0,1.467-.969,9.9,9.9,0,0,0,1.637-2.669c.119-.243.233-.487.347-.71s.192-.389.269-.565a.275.275,0,0,0,.047-.1,3.832,3.832,0,0,0,.28-2.239,6.416,6.416,0,0,0-1.71-2.933.279.279,0,0,0-.337-.068.331.331,0,0,0-.181.352c.052.306.119.612.181.907.088.4.181.819.233,1.233a3.678,3.678,0,0,1-.871,2.477h0l-.436.663c-.419.637-.855,1.3-1.228,1.99a2.051,2.051,0,0,0-.093-.311,2.524,2.524,0,0,0-1.254-1.316c.068-.124.13-.249.187-.368h0c.052-.1.1-.207.135-.259.192-.29.41-.591.6-.855.907-1.259,1.845-2.56,1.27-4.3a4.346,4.346,0,0,0-3.208-2.928c-.373-.113-.726-.243-1.062-.368a5.176,5.176,0,0,0-3.767-.368l-.285.135c-3.539.788-5.311,2.124-5.42,4.088a.517.517,0,0,0,.068.4.254.254,0,0,0,.2.083h.031l.218-.031a.82.82,0,0,0,.332-.047,9.626,9.626,0,0,1,2.793-.13,3.6,3.6,0,0,1-1.192.4h-.114c-.311.068-.632.119-.917.166l-.389.068c-.2.031-1.067.254-1.078.259a.3.3,0,0,0-.212.187c-.109.29.352.694.357.7a2.414,2.414,0,0,0,1.176.378,9.016,9.016,0,0,0,3.441-.295c.622-.161,1.239-.347,1.845-.518l1.036-.311a1.622,1.622,0,0,0,.342-.113c1.135-.415,1.446-.368,1.508-.259s-.306.689-1.15,1.6a5.853,5.853,0,0,0-.612.715,1.986,1.986,0,0,0-.389,1.109c-.834-.047-1.647-.047-2.306-.047h-.655a4.342,4.342,0,0,0-3.067.741,18.428,18.428,0,0,1-1.964,1.269,10.02,10.02,0,0,0-3.974,3.394h0l-.036.1a.681.681,0,0,0-.026.073l-.088.187a3.726,3.726,0,0,0-2.073-.181c-.264,0-.518.047-.725.047h-.052a3.327,3.327,0,0,1-1.259-.1c0-.052.072-.243.518-.684.347-.342.7-.674,1.036-.995a24.073,24.073,0,0,0,2.4-2.465l.155-.186.036-.047c.518-.627,1.239-1.487,1.166-2.265a.28.28,0,0,0-.14-.228.312.312,0,0,0-.27-.031,4.768,4.768,0,0,0-.518.275l-.342.187.476-.342c.71-.518,1.322-.928,1.2-1.42-.1-.4-.627-.518-1.068-.554a8.926,8.926,0,0,0-3.151.342c-1.461.384-3.063.907-3.83,1.86a8.873,8.873,0,0,0-.881,1.446,8.72,8.72,0,0,0-.378.922,7.951,7.951,0,0,0-1.036,3.254.107.107,0,0,0,0,.057,1.329,1.329,0,0,0,0,.2v.052a5.022,5.022,0,0,0,.036,1.285h0v.052a2.09,2.09,0,0,0,.088.431l.031.083v.031a.581.581,0,0,0,.088.212l.042.1c0,.052.047.1.062.145v.036c.031.1.063.2.1.3a3.4,3.4,0,0,0,2.632,1.8c.29.073.6.166.912.259a6.731,6.731,0,0,0,3.026.446,1.67,1.67,0,0,0,.249-.073,3.676,3.676,0,0,0,.839,1.2,6.8,6.8,0,0,0,.756.487c-.544.109-1.093.238-1.622.368l-.435.1a3.885,3.885,0,0,1-2.652-.041,7.875,7.875,0,0,1-1.156-.684c-.239-.155-.487-.321-.736-.461a.259.259,0,0,0-.316.036.269.269,0,0,0-.057.326c1.094,2.073,2.435,3.078,4.223,3.109h0a3.708,3.708,0,0,0,.435,0,19.387,19.387,0,0,0,3.98-.637,4.3,4.3,0,0,0-.171,1.814,3.94,3.94,0,0,0,.657,1.819,3.025,3.025,0,0,1,.383.99,3.564,3.564,0,0,0,.519,1.259,4.33,4.33,0,0,0,1.824,1.269c.15.062.29.135.44.207a5.8,5.8,0,0,0,1.073.44h.057a1.553,1.553,0,0,0,.415.073.518.518,0,0,0,.518-.311c.466-.975-.736-1.643-1.456-2.042l-.239-.135a2.639,2.639,0,0,1-1.161-2.119,1.878,1.878,0,0,0-.036-.233v-.036a6.046,6.046,0,0,0-.228-1.125c-.119-.363-.239-.725-.363-1.088,0-.057-.057-.129-.093-.212a1.53,1.53,0,0,1-.14-.368c.057-.057.285-.119.984-.135h.4l.274-.031a6.506,6.506,0,0,0,2.389-.591,2.774,2.774,0,0,0-.637,2.073,1.421,1.421,0,0,0,.959.938,1.443,1.443,0,0,1,.518.321s1.684,1.8,2.834,1.8h0a1.029,1.029,0,0,0,.187,0,2.367,2.367,0,0,0,1.461-1.456,1.162,1.162,0,0,0-.161-.922,1.767,1.767,0,0,0-1.135-.725,4.969,4.969,0,0,0-.99-.036c-.518,0-1.27.031-1.482-.228a.565.565,0,0,1-.047-.518l.068-.295a4.834,4.834,0,0,1,.518-1.6c.233-.1.466-.212.7-.337a14.6,14.6,0,0,0,1.41-.9,4.618,4.618,0,0,1,.419-.264h.14a2.012,2.012,0,0,1,1.192.3c.15.068.29.135.43.187l.088.031c.332.125.648.239.674.606a.958.958,0,0,1-.088.4c-.135.207-.295.425-.425.6a4.76,4.76,0,0,0-.519.824,1.8,1.8,0,0,0-.068,1.347,1.186,1.186,0,0,0,.663.669,1.617,1.617,0,0,0,.6.093,2.259,2.259,0,0,0,1.435-.446c.845-.829.306-3.467.295-3.493a1.5,1.5,0,0,1,.041-.617,1.4,1.4,0,0,0-.207-1.327,2.073,2.073,0,0,0-1.736-.6h0a8.581,8.581,0,0,0,1.394-1.347l.181-.207c.073-.083.15-.192.244-.321.388-.518.56-.689.637-.715a1.451,1.451,0,0,1,.192.311c.042.083.083.15.113.2l.622.928a5.793,5.793,0,0,0,.73.834h0l.166.166a2.634,2.634,0,0,1,.959,2.171.907.907,0,0,1-.031.275c-.109.819-.285,2.187.746,2.373.456.078.632-.378.72-.617v-.052a6.2,6.2,0,0,0,.275-1.14,2.463,2.463,0,0,1,.088-.466,4.423,4.423,0,0,0,.15-2.223Zm-26.589,3.582a4.425,4.425,0,0,1-1.358-1.43,4.868,4.868,0,0,0,2.426.943,2.273,2.273,0,0,0,.233.933,3.063,3.063,0,0,1-1.316-.446Zm25.122-17a5.788,5.788,0,0,1,.689,1.383,2.533,2.533,0,0,1,.031,1.524,2.286,2.286,0,0,0-.741-.518,4.493,4.493,0,0,0,.005-2.389Zm-8.094-.135h0a2.127,2.127,0,0,1-.29.1l-1.078.321c-.585.176-1.2.357-1.809.518a9.013,9.013,0,0,1-3.208.28,1.928,1.928,0,0,1-.482-.135c.3-.036.643-.1.954-.15l.435-.073a5,5,0,0,0,2.171-.746.994.994,0,0,0,.378-.565.517.517,0,0,0-.1-.373c-.1-.13-.342-.155-.767-.2h-.151a11.133,11.133,0,0,0-2.953.187c.026-.078.062-.161.093-.254a2.571,2.571,0,0,1,.1-.264c.964-1.6,2.591-2.131,4.358-2.689h.073l.394-.124a4.759,4.759,0,0,1,3.389.363c.342.129.689.254,1.073.373A3.732,3.732,0,0,1,2741.15-501a2.782,2.782,0,0,1-.233,2.265c-.554-.119-1.192-.285-1.705-.42l-1.062-.275a1.553,1.553,0,0,0-.119-.612c-.415-.741-1.519-.332-2.286-.062Zm1.406,2.373a5.376,5.376,0,0,0,.8-1.005l1.036.27c.518.14,1.036.27,1.5.378-.176.27-.368.518-.554.8s-.425.58-.617.881a3.376,3.376,0,0,0-.176.326c-.062.125-.135.275-.207.4a10.95,10.95,0,0,0-2.736-.612,3.218,3.218,0,0,1,.938-1.441Zm-19.691,10.053a3.565,3.565,0,0,1-1.658-.85,5,5,0,0,1-.339-.519l-.083.052.078-.073a5.44,5.44,0,0,1-.052-3.684c.113-.352.212-.694.3-1.036a11.057,11.057,0,0,1,.684-1.979,7.988,7.988,0,0,1,.813-1.332c.741-.928,2.675-1.435,3.5-1.648a8.346,8.346,0,0,1,2.928-.332,1.672,1.672,0,0,1,.518.113,4.7,4.7,0,0,1-.933.751,4.659,4.659,0,0,0-.9.736c-.259.326-.518.669-.27.933s.694.083,1.554-.409a7.185,7.185,0,0,1-.891,1.259l-.2.238a23.943,23.943,0,0,1-2.342,2.4c-.347.321-.7.657-1.037,1.005a2.786,2.786,0,0,0-.632.824,17.558,17.558,0,0,0-.814,2.652,6.021,6.021,0,0,1-.223.891Zm4.5-.187a3.318,3.318,0,0,0-.119.71,1.474,1.474,0,0,1-.518.223,6.246,6.246,0,0,1-2.731-.425l-.415-.125a8.369,8.369,0,0,0,.228-.922c.052-.259.119-.586.2-.865l.047-.088a2.262,2.262,0,0,1,.207-.352,2.318,2.318,0,0,1,.881-.487h.6a7.4,7.4,0,0,0,.783-.052,3.249,3.249,0,0,1,1.772.135l-.062.124h0a4.619,4.619,0,0,0-.838,2.125Zm3.368,4.477a1.693,1.693,0,0,1-.161.109,6.181,6.181,0,0,1-2.389.544c-.285.031-.549.057-.793.093s-.518.078-.8.1v-.052a.233.233,0,0,0-.062-.135l-.042-.088a1.713,1.713,0,0,1-.239-.72,19.575,19.575,0,0,0,1.912-.42c.431-.109.875-.223,1.316-.316a5.04,5.04,0,0,0,1.554.27h.28a2.961,2.961,0,0,0-.565.612Zm1.638,2.845a5.591,5.591,0,0,1,.2,1.036h0l.031.259a3.362,3.362,0,0,0,1.456,2.555l.254.145c.694.378,1.352.788,1.218,1.2l-.223-.047h-.057a5.129,5.129,0,0,1-.969-.4l-.456-.218a3.717,3.717,0,0,1-1.555-1.062,3.109,3.109,0,0,1-.425-1.036c-.052-.2-.1-.4-.176-.6l-.113-.347a5.947,5.947,0,0,1-.435-2.332,4.085,4.085,0,0,1,.083-.554,2.3,2.3,0,0,1,.71.119.265.265,0,0,0,.047.1l.062.145c.114.321.239.679.358,1.042Zm1.555-2.652-.28.031a3.119,3.119,0,0,1-.342,0c-.554,0-1.243,0-1.5.435l-.026.036a1.594,1.594,0,0,0-.347-.073,2.9,2.9,0,0,1,1.037-1.192c.352,0,.725.026,1.093.057h.057a5.814,5.814,0,0,1,.591.161,6.6,6.6,0,0,0,1.135.28,9.461,9.461,0,0,1-1.389.264Zm2.684,2.3a.565.565,0,0,1-.264-.363c-.145-.518.342-1.254.772-1.907l.171-.264.4-.093a7.068,7.068,0,0,0-.321,1.182l-.062.29a1.433,1.433,0,0,0,0,.606,7.85,7.85,0,0,1-.669.549Zm2.84.311h0a5.007,5.007,0,0,1,.829.026,1.181,1.181,0,0,1,.746.456.584.584,0,0,1,.078.456,1.849,1.849,0,0,1-.975.984c-.648.113-2.1-1.171-2.451-1.555a1.553,1.553,0,0,0-.549-.394c.135-.1.27-.218.394-.332a3.011,3.011,0,0,0,1.958.357Zm1.782-6.053c-.176.1-.373.218-.585.352a6.391,6.391,0,0,0-.715.549,7.233,7.233,0,0,1-.767.575,5.5,5.5,0,0,1-3.208.694,7.745,7.745,0,0,1-1.871-.29,11.259,11.259,0,0,0-1.44-.28l-.664-.062a10.055,10.055,0,0,1-1.762-.27l-.311-.1c-.347-.113-.684-.249-1.006-.378h-.026a1.383,1.383,0,0,1-.746-.591l-.047-.1a1.257,1.257,0,0,1-.1-.549.264.264,0,0,0,0-.062,7.623,7.623,0,0,1,.86-2.368,10.529,10.529,0,0,0,.467-1.036c.72-1.425,2.27-2.342,3.767-3.229a19.461,19.461,0,0,0,2.037-1.316,3.547,3.547,0,0,1,2.591-.58h.663a16.157,16.157,0,0,1,5.7.689,2.074,2.074,0,0,1,1.394,1.264c.274.938-.259,2.29-1.622,4.146-.223.3-.446.612-.668.928s-.549.783-.835,1.15a3.277,3.277,0,0,1-1.077.86Zm3.472,5.482a1.856,1.856,0,0,1-1.368.218.565.565,0,0,1-.326-.326,1.172,1.172,0,0,1,.057-.871,4.67,4.67,0,0,1,.476-.7h0a3.677,3.677,0,0,0,.373-.518,2.078,2.078,0,0,0,.415-1.078,1.19,1.19,0,0,0,.425-.1h.036a1.632,1.632,0,0,0,0,.518c.223.466.415,2.4-.057,2.866Zm.088-4.607a.582.582,0,0,1,.14.42,2.3,2.3,0,0,1-.337.264.688.688,0,0,1-.419.078,1.318,1.318,0,0,0-.591-.435l-.27-.119a7.656,7.656,0,0,0-1.181-.431l.259-.171a5.919,5.919,0,0,0,.819.026h0c.648-.016,1.285-.016,1.612.368Zm1.145-4.2c-.425.047-.782.518-1.073.943h0a2.542,2.542,0,0,1-.213.275l-.181.212a8.456,8.456,0,0,1-1.29,1.259c.456-.643.953-1.347,1.4-2.073.306-.42.56-.8.772-1.166a2.193,2.193,0,0,1,.565-.14h.026a1.038,1.038,0,0,1,.021.689Zm.052-1.627-.113.052a3.588,3.588,0,0,0,.135-.368.809.809,0,0,1,.088-.249c.036-.093.119-.264.166-.368a.651.651,0,0,0,.052-.1,19.637,19.637,0,0,1,1.7-2.943c.28-.425.57-.86.839-1.306a3.2,3.2,0,0,1,.637.922h0l-.316.6-.073.14c-.083.15-.161.306-.243.466a9.473,9.473,0,0,1-1.5,2.327,4.429,4.429,0,0,1-1.347.829Zm4.011,7.12c-.037.166-.068.337-.1.518-.062.363-.212.912-.243,1.036a.894.894,0,0,1-.113.264c-.187-.057-.358-.4-.192-1.679a2.112,2.112,0,0,1,.036-.29,3.311,3.311,0,0,0-1.133-2.659l-.171-.176h0a5.319,5.319,0,0,1-.657-.746c-.207-.306-.415-.612-.617-.922a.9.9,0,0,1-.068-.119v-.026a2.028,2.028,0,0,0-.279-.44,1.71,1.71,0,0,0,.062-.783,4.732,4.732,0,0,1,2.145,1.591,3.522,3.522,0,0,1,.243.554,3.4,3.4,0,0,0,.637,1.073,3.109,3.109,0,0,1,.565.947,3.991,3.991,0,0,1-.088,1.855Z" transform="translate(-5421.396 368.713)" fill="#3a2088"/>
    <path id="Path_563" data-name="Path 563" d="M6.194-12.217h.532L8.151-6.593H4.788ZM3.325-.817l.95-3.743H8.683l.95,3.743A.988.988,0,0,0,10.7.095h.1c.7,0,1.159-.437.95-1.444L8.778-13.034a1.4,1.4,0,0,0-1.52-1.216H5.681a1.4,1.4,0,0,0-1.52,1.216L1.2-1.349C.988-.342,1.444.095,2.147.095h.1A.994.994,0,0,0,3.325-.817Zm16.7-1.026C18.2-1.843,17.48-2.945,17.48-5V-9.253c0-2.052.722-3.154,2.546-3.154a1.972,1.972,0,0,1,2.261,2.166v.152a1.019,1.019,0,0,0,1.045,1.121h.209a1.019,1.019,0,0,0,1.045-1.121v-.171c0-2.451-1.425-4.18-4.6-4.18-3.306,0-4.788,1.9-4.788,5.168v4.294C15.2-1.71,16.682.19,19.988.19c3.192,0,4.6-1.729,4.6-4.18v-.171a1.019,1.019,0,0,0-1.045-1.121h-.209a1.019,1.019,0,0,0-1.045,1.121v.152A1.972,1.972,0,0,1,20.026-1.843Zm11.1-10.374H33.1c1.9,0,2.584.912,2.584,2.185V-8.74c0,1.311-.684,2.2-2.584,2.2H31.122Zm0,11.21V-4.731h1.862l2.3,3.952a1.237,1.237,0,0,0,1.254.874h.1a.964.964,0,0,0,.931-1.463L35.34-5.016A3.564,3.564,0,0,0,37.962-8.74v-1.292c0-2.66-1.482-4.218-4.769-4.218H29.906a1.018,1.018,0,0,0-1.064,1.1V-1.007a1,1,0,0,0,1.045,1.1h.19A1,1,0,0,0,31.122-1.007Zm13.87-.057V-6.156h2.964a.838.838,0,0,0,.912-.874V-7.2a.838.838,0,0,0-.912-.874H44.992v-4.256h5a.854.854,0,0,0,.931-.874v-.171a.854.854,0,0,0-.931-.874H43.757a1,1,0,0,0-1.045,1.1V-1.064a1.013,1.013,0,0,0,1.045,1.1h.19A1.013,1.013,0,0,0,44.992-1.064Z" transform="translate(-2769 -113)" fill="#3a2088"/>
  </g>
</svg>
