<svg width="139" height="66" viewBox="0 0 139 66" fill="none" xmlns="http://www.w3.org/2000/svg">
<g clip-path="url(#clip0_153_1336)">
<path d="M137.077 53.756H138.986L135.69 61.857H135.239L133.435 57.815C133.191 57.277 133.105 57.017 133.07 56.635H133.001C132.966 57.017 132.88 57.277 132.636 57.815L130.832 61.857H130.382L127.085 53.756H128.994L130.294 57.381C130.537 58.075 130.607 58.301 130.642 58.803H130.711C130.78 58.301 130.902 58.04 131.197 57.346L132.81 53.634H133.261L134.874 57.346C135.17 58.04 135.291 58.301 135.36 58.803H135.429C135.464 58.301 135.534 58.075 135.776 57.381L137.077 53.756ZM122.632 60.365C121.088 60.365 120.047 59.324 120.047 57.763C120.047 56.201 121.088 55.16 122.632 55.16C124.175 55.16 125.216 56.201 125.216 57.763C125.216 59.324 124.175 60.365 122.632 60.365ZM122.632 53.495C120.099 53.495 118.243 55.317 118.243 57.763C118.243 60.209 120.099 62.03 122.632 62.03C125.165 62.03 127.021 60.209 127.021 57.763C127.021 55.317 125.165 53.495 122.632 53.495ZM117.517 53.512C117.622 53.512 117.691 53.512 117.813 53.53V55.491C117.5 55.456 117.396 55.456 117.257 55.456C115.662 55.456 114.829 56.427 114.829 58.249V61.77H113.129V53.756H114.829C114.829 54.363 114.742 55.213 114.62 55.872L114.707 55.89C115.124 54.311 116.078 53.512 117.517 53.512ZM111.862 53.512C111.966 53.512 112.036 53.512 112.157 53.53V55.491C111.845 55.456 111.74 55.456 111.601 55.456C110.005 55.456 109.173 56.427 109.173 58.249V61.77H107.473V53.756H109.173C109.173 54.363 109.086 55.213 108.965 55.872L109.052 55.89C109.468 54.311 110.422 53.512 111.862 53.512ZM101.727 60.365C100.183 60.365 99.142 59.324 99.142 57.763C99.142 56.201 100.183 55.16 101.727 55.16C103.271 55.16 104.312 56.201 104.312 57.763C104.312 59.324 103.271 60.365 101.727 60.365ZM101.727 53.495C99.194 53.495 97.338 55.317 97.338 57.763C97.338 60.209 99.194 62.03 101.727 62.03C104.259 62.03 106.116 60.209 106.116 57.763C106.116 55.317 104.259 53.495 101.727 53.495ZM96.03 56.531V61.77H94.331V57.087C94.331 55.733 93.828 55.109 92.717 55.109C91.503 55.109 90.913 55.976 90.913 57.745V61.77H89.265V57.087C89.265 55.733 88.762 55.109 87.652 55.109C86.437 55.109 85.848 55.976 85.848 57.745V61.77H84.147V53.756H85.848C85.848 54.328 85.778 54.952 85.657 55.473L85.726 55.508C86.195 54.12 87.01 53.495 88.346 53.495C89.629 53.495 90.445 54.155 90.739 55.421H90.809C91.139 54.207 92.11 53.495 93.429 53.495C95.094 53.495 96.03 54.588 96.03 56.531ZM78.401 60.365C76.857 60.365 75.816 59.324 75.816 57.763C75.816 56.201 76.857 55.16 78.401 55.16C79.945 55.16 80.986 56.201 80.986 57.763C80.986 59.324 79.945 60.365 78.401 60.365ZM78.401 53.495C75.869 53.495 74.012 55.317 74.012 57.763C74.012 60.209 75.869 62.03 78.401 62.03C80.934 62.03 82.791 60.209 82.791 57.763C82.791 55.317 80.934 53.495 78.401 53.495ZM71.408 51.292L71.373 51.327C71.408 51.413 71.426 51.552 71.426 51.76V61.77H69.622V51.76C69.622 51.552 69.638 51.413 69.673 51.327L69.638 51.292C69.517 51.344 69.413 51.362 69.205 51.362H66.187V49.627H74.86V51.362H71.842C71.634 51.362 71.53 51.344 71.408 51.292ZM55.535 60.434C54.042 60.434 53.14 59.428 53.14 57.763C53.14 56.098 54.042 55.091 55.535 55.091C57.078 55.091 58.154 56.185 58.154 57.763C58.154 59.342 57.078 60.434 55.535 60.434ZM58.223 55.299L58.154 55.317C57.599 54.137 56.558 53.495 55.205 53.495C52.932 53.495 51.336 55.265 51.336 57.763C51.336 60.261 52.932 62.013 55.205 62.013C56.54 62.013 57.581 61.371 58.154 60.209L58.223 60.226C58.136 60.573 58.119 60.816 58.119 61.389V61.735C58.119 62.985 56.992 63.869 55.413 63.869C54.459 63.869 53.609 63.609 52.689 63.019L51.857 64.546C52.88 65.205 54.008 65.5 55.396 65.5C58.31 65.5 59.767 64.129 59.767 61.406V53.756H58.067C58.067 54.588 58.102 54.97 58.223 55.299ZM50.019 56.496V61.77H48.319V56.982C48.319 55.768 47.712 55.109 46.584 55.109C45.162 55.109 44.347 56.132 44.347 57.919V61.77H42.646V53.756H44.347C44.347 54.553 44.312 55.005 44.173 55.594L44.242 55.612C44.797 54.207 45.769 53.495 47.157 53.495C48.978 53.495 50.019 54.588 50.019 56.496ZM38.973 49.627H40.881V51.917H38.973V49.627ZM39.078 53.756H40.778V61.771H39.078V53.756ZM37.809 53.512C37.914 53.512 37.983 53.512 38.104 53.53V55.491C37.792 55.456 37.688 55.456 37.549 55.456C35.953 55.456 35.121 56.427 35.121 58.249V61.77H33.42V53.756H35.121C35.121 54.363 35.034 55.213 34.913 55.872L34.999 55.89C35.415 54.311 36.37 53.512 37.809 53.512ZM29.852 53.756H31.552V61.771H29.852V53.756ZM29.747 49.627H31.655V51.917H29.747V49.627ZM24.253 60.434C22.727 60.434 21.651 59.342 21.651 57.763C21.651 56.185 22.727 55.091 24.253 55.091C25.763 55.091 26.665 56.098 26.665 57.763C26.665 59.428 25.763 60.434 24.253 60.434ZM24.583 53.495C23.247 53.495 22.224 54.137 21.634 55.317L21.564 55.299C21.634 55.005 21.669 54.45 21.669 53.756H20.02V65.239H21.721V61.909C21.721 61.233 21.669 60.608 21.564 60.226L21.634 60.209C22.207 61.389 23.247 62.03 24.583 62.03C26.855 62.03 28.469 60.261 28.469 57.763C28.469 55.265 26.855 53.495 24.583 53.495ZM18.714 59.602C18.714 61.128 17.569 62.03 15.609 62.03C14.447 62.03 13.249 61.718 12.33 61.181L13.093 59.671C13.995 60.191 14.828 60.434 15.643 60.434C16.493 60.434 16.892 60.191 16.892 59.671C16.892 59.307 16.667 59.064 16.06 58.769L14.602 58.058C13.44 57.503 12.902 56.757 12.902 55.733C12.902 54.328 13.943 53.495 15.73 53.495C16.615 53.495 17.603 53.721 18.523 54.12L17.829 55.594C16.996 55.247 16.32 55.074 15.696 55.074C15.019 55.074 14.706 55.265 14.706 55.699C14.706 56.08 14.949 56.34 15.609 56.653L17.101 57.364C18.228 57.902 18.714 58.578 18.714 59.602ZM11.266 56.496V61.77H9.56599V56.982C9.56599 55.768 8.95899 55.109 7.83099 55.109C6.40899 55.109 5.59299 56.132 5.59299 57.919V61.77H3.89399V53.756H5.59299C5.59299 54.553 5.55899 55.005 5.41999 55.594L5.48899 55.612C6.04399 54.207 7.01599 53.495 8.40399 53.495C10.225 53.495 11.266 54.588 11.266 56.496ZM0 49.627H1.804V61.77H0V49.627ZM138.986 12.914V19.638C138.296 19.57 137.641 19.534 137.02 19.534C132.502 19.534 130.244 22.139 130.244 27.345V37.484H123.933V13.586H130.089C130.089 15.587 129.864 17.932 129.416 20.621L129.623 20.673C130.83 15.466 133.503 12.862 137.641 12.862C138.262 12.862 138.709 12.88 138.986 12.914ZM104.795 19.353C105.864 18.44 107.209 17.983 108.83 17.983C110.416 17.983 111.692 18.422 112.658 19.302C113.622 20.181 114.158 21.432 114.261 23.052L114.158 23.156C113.951 22.984 113.64 22.871 113.226 22.819C112.813 22.767 112.14 22.742 111.209 22.742H105.571C104.33 22.742 103.467 22.897 102.985 23.207L102.881 23.104C103.088 21.518 103.726 20.267 104.795 19.353ZM98.278 32.285C99.346 34.199 100.872 35.673 102.856 36.708C104.838 37.743 107.123 38.259 109.709 38.259C113.537 38.259 116.864 36.966 119.693 34.38L116.796 29.828C114.727 31.725 112.364 32.673 109.709 32.673C107.812 32.673 106.286 32.208 105.131 31.277C103.976 30.345 103.261 28.984 102.985 27.19L102.778 26.621L102.881 26.466C103.191 26.673 103.57 26.811 104.019 26.88C104.467 26.949 105.088 26.983 105.881 26.983H120.675V25.483C120.675 21.518 119.641 18.414 117.572 16.173C115.503 13.931 112.658 12.81 109.037 12.81C106.588 12.81 104.433 13.336 102.571 14.388C100.708 15.44 99.261 16.931 98.226 18.862C97.191 20.794 96.674 23.035 96.674 25.587C96.674 28.139 97.208 30.371 98.278 32.285ZM80.278 37.484H73.967V0.5H80.278V18.862C80.278 21.104 80.071 22.845 79.657 24.087L79.812 24.138L88.916 13.586H96.83L88.502 22.483C87.501 23.552 86.674 24.207 86.019 24.449V24.656C86.502 24.829 87.226 25.397 88.192 26.362L97.813 37.484H89.588L79.812 25.483L79.657 25.587C80.071 26.76 80.278 28.415 80.278 30.553L80.278 37.484ZM68.743 19.534C64.225 19.534 61.967 22.139 61.967 27.345V37.484H55.656V13.586H61.812C61.812 15.587 61.587 17.932 61.14 20.621L61.347 20.673C62.553 15.466 65.226 12.862 69.364 12.862C69.985 12.862 70.432 12.88 70.708 12.914V19.638C70.019 19.57 69.364 19.534 68.743 19.534ZM37.139 26.983C37.932 26.294 38.966 25.949 40.243 25.949C41.553 25.949 42.613 26.294 43.424 26.983C44.234 27.674 44.64 28.553 44.64 29.621C44.64 30.725 44.225 31.621 43.398 32.311C42.57 33.001 41.501 33.345 40.191 33.345C38.915 33.345 37.889 33.009 37.113 32.337C36.338 31.665 35.95 30.777 35.95 29.673C35.95 28.57 36.345 27.674 37.139 26.983ZM37.708 38.259C41.432 38.259 44.174 36.553 45.933 33.139L46.139 33.242C45.622 34.449 45.364 35.863 45.364 37.484H51.777V22.432C51.777 19.052 50.932 16.604 49.243 15.086C47.553 13.569 44.812 12.81 41.018 12.81C38.122 12.81 35.122 13.207 32.019 14L33.259 19.328C36.121 18.638 38.484 18.293 40.346 18.293C41.967 18.293 43.234 18.622 44.148 19.276C45.061 19.932 45.553 20.88 45.622 22.121C45.622 23.639 45.76 24.811 46.036 25.639L45.829 25.742C45.002 24.397 43.906 23.371 42.544 22.664C41.182 21.958 39.604 21.604 37.812 21.604C35.19 21.604 33.096 22.354 31.527 23.854C29.957 25.354 29.173 27.363 29.173 29.88C29.173 32.398 29.957 34.424 31.527 35.958C33.096 37.492 35.156 38.259 37.708 38.259ZM7.91401 31.639C7.50101 31.639 7.03501 31.725 6.51801 31.897L6.41401 31.794C6.55101 31.45 6.62101 30.966 6.62101 30.345V23C6.62101 22.415 6.55101 21.949 6.41401 21.604L6.51801 21.5C6.79301 21.638 7.24201 21.707 7.86301 21.707H13.449C17.621 21.707 19.708 23.38 19.708 26.724C19.708 30.001 17.759 31.639 13.863 31.639H7.91401ZM6.41401 6.96601L6.51801 6.86201C6.75901 7.03501 7.20701 7.12001 7.86301 7.12001H12.776C14.397 7.12001 15.638 7.48201 16.501 8.20701C17.363 8.93101 17.794 9.98301 17.794 11.362C17.794 12.81 17.336 13.94 16.424 14.75C15.509 15.56 14.207 15.966 12.518 15.966H7.86301C7.24201 15.966 6.79301 16.035 6.51801 16.173L6.41401 16.069C6.55101 15.724 6.62101 15.259 6.62101 14.672V8.36201C6.62101 7.77601 6.55101 7.31001 6.41401 6.96601ZM23.484 34.768C25.553 32.958 26.587 30.518 26.587 27.449C26.587 25.139 25.992 23.233 24.803 21.733C23.613 20.233 21.897 19.242 19.656 18.759C18.655 18.518 17.691 18.397 16.759 18.397V18.19C17.725 18.156 18.655 17.966 19.553 17.621C21.104 17.104 22.311 16.207 23.173 14.931C24.035 13.656 24.466 12.104 24.466 10.276C24.466 7.55201 23.536 5.37101 21.674 3.73301C19.811 2.09501 17.31 1.27501 14.173 1.27501H0V37.484H15.156C18.639 37.484 21.415 36.578 23.484 34.768Z" fill="#E11900"/>
</g>
<defs>
<clipPath id="clip0_153_1336">
<rect width="138.986" height="65" fill="white" transform="translate(0 0.5)"/>
</clipPath>
</defs>
</svg>
