<?xml version="1.0" encoding="UTF-8"?><svg id="Layer_2" xmlns="http://www.w3.org/2000/svg" viewBox="0 0 601.11 96.32"><defs><style>.cls-1{fill:#20295a;}.cls-1,.cls-2{stroke-width:0px;}.cls-3{fill:none;stroke:#1f2a59;stroke-miterlimit:10;}.cls-2{fill:#ff2600;}</style></defs><g id="Layer_1-2"><path class="cls-1" d="M93.25,96.01V.31h25.43l34.87,56.74-20.64-.14L168.17.31h24.61v95.7h-28.44v-22.83c0-8.2.21-15.59.62-22.15.41-6.56,1.11-13.08,2.12-19.55l3.28,8.61-23.11,35.82h-9.02l-22.7-35.82,3.42-8.61c1,6.11,1.71,12.37,2.12,18.8.41,6.43.62,14.06.62,22.9v22.83h-28.44Z"/><path class="cls-1" d="M50.67,96.32c-7.39,0-14.18-1.19-20.38-3.56-6.2-2.38-11.57-5.69-16.1-9.96-4.53-4.26-8.03-9.34-10.49-15.24-2.46-5.89-3.69-12.36-3.69-19.39s1.25-13.5,3.76-19.4c2.51-5.89,6.05-10.97,10.62-15.24,4.57-4.27,10-7.59,16.29-9.96,6.29-2.37,13.22-3.56,20.78-3.56,4.31,0,8.55.51,12.73,1.52,4.18,1.01,8.14,2.55,11.87,4.62,3.74,2.07,7.15,4.68,10.23,7.85l-17.02,19.92c-1.23-1.5-2.71-2.86-4.42-4.09-1.72-1.23-3.69-2.22-5.94-2.97-2.24-.75-4.81-1.12-7.72-1.12s-5.83.51-8.51,1.52c-2.68,1.01-5.01,2.49-6.99,4.42-1.98,1.94-3.54,4.31-4.68,7.12-1.14,2.82-1.72,6.07-1.72,9.76,0,3.34.57,6.38,1.72,9.1,1.14,2.73,2.77,5.06,4.88,6.99,2.11,1.94,4.66,3.43,7.65,4.49,2.99,1.06,6.33,1.58,10.03,1.58,2.64,0,5.14-.4,7.52-1.19,2.38-.79,4.53-1.83,6.47-3.1,1.93-1.27,3.61-2.71,5.01-4.29l13.59,21.37c-2.29,2.46-5.32,4.66-9.1,6.6-3.78,1.93-7.96,3.45-12.53,4.55-4.57,1.1-9.19,1.65-13.85,1.65"/><path class="cls-2" d="M254.89,4.04c6.46,2.3,12.02,5.56,16.67,9.76,4.65,4.2,8.27,9.26,10.85,15.18,2.57,5.92,3.86,12.31,3.86,19.18s-1.28,13.24-3.86,19.11c-2.58,5.88-6.19,10.94-10.85,15.18-4.65,4.25-10.21,7.52-16.67,9.83-6.47,2.3-13.36,3.45-20.68,3.45h-33.34V.58h33.34c7.32,0,14.21,1.15,20.68,3.46M220.9,26.66l-.41,27.51,20.53,24.85-.91-32.54,32.49,1.91-24.19-21.29"/><line class="cls-3" x1="305.19" y1=".99" x2="305.19" y2="95.32"/><path class="cls-1" d="M331.03,30.36c-1.11-.45-2.09-1.08-2.92-1.89-.83-.81-1.49-1.78-1.96-2.91-.47-1.13-.71-2.35-.71-3.64s.24-2.52.71-3.66c.47-1.14,1.12-2.12,1.95-2.94.83-.82,1.79-1.45,2.9-1.9,1.11-.45,2.26-.67,3.46-.67.78,0,1.61.1,2.49.3.89.2,1.75.56,2.58,1.09.83.52,1.59,1.24,2.25,2.15.67.91,1.13,2.03,1.38,3.37h-4.86c-.1-.4-.31-.84-.62-1.3-.31-.46-.77-.85-1.37-1.16-.6-.31-1.24-.47-1.91-.47s-1.27.12-1.84.37c-.57.24-1.05.6-1.45,1.06s-.72,1.02-.94,1.66c-.22.64-.33,1.34-.33,2.1,0,1.54.43,2.78,1.28,3.72.85.94,1.95,1.42,3.3,1.42.94,0,1.78-.27,2.51-.81.73-.54,1.22-1.25,1.49-2.13h4.83c-.2,1.06-.57,2.03-1.1,2.9-.53.87-1.19,1.6-1.96,2.2-.78.6-1.65,1.05-2.62,1.35-.97.3-1.98.46-3.03.46-1.23,0-2.4-.22-3.52-.67"/><polygon class="cls-1" points="351.46 13 351.46 26.98 358.24 26.98 358.24 30.78 347.15 30.78 347.15 13 351.46 13"/><path class="cls-1" d="M361.48,13h4.3v10.68c0,.49.08,1,.25,1.54.17.54.49.97.97,1.29.48.32,1.1.48,1.86.48,1.01,0,1.79-.29,2.33-.87.54-.58.81-1.4.81-2.44v-10.68h4.3v10.68c0,1.16-.21,2.21-.62,3.15-.41.94-.98,1.71-1.68,2.33-.71.62-1.51,1.08-2.42,1.39-.9.31-1.83.47-2.8.47s-1.88-.16-2.76-.47c-.88-.31-1.66-.78-2.34-1.39-.68-.62-1.22-1.39-1.62-2.33-.4-.94-.59-1.99-.59-3.15v-10.68Z"/><path class="cls-1" d="M393.3,29.45c-1.03.89-2.48,1.33-4.35,1.33h-7.62V13h7.09c.68,0,1.31.07,1.9.2.59.13,1.12.33,1.6.59.47.26.88.57,1.21.94.34.36.62.81.86,1.33.24.52.35,1.14.35,1.85,0,.83-.21,1.56-.62,2.2-.41.64-.98,1.11-1.71,1.42.84.3,1.53.84,2.05,1.61.52.77.78,1.62.78,2.54,0,1.62-.51,2.87-1.54,3.76M387.86,16.8h-2.23v3.09h2.23c.61,0,1.08-.11,1.4-.34.33-.23.52-.46.58-.68.06-.23.09-.39.09-.49,0-1.05-.69-1.57-2.08-1.57M390.25,24.51c-.13-.26-.35-.46-.67-.61-.32-.14-.7-.22-1.14-.22h-2.81v3.29h2.76c.61,0,1.07-.12,1.39-.37.32-.25.51-.5.57-.76.06-.26.09-.44.09-.54,0-.27-.06-.54-.19-.8"/><polygon class="cls-1" points="405 13 410.19 13 415.18 22.83 420.14 13 425.1 13 425.1 30.78 420.77 30.78 420.77 19.99 416.54 28.24 413.51 28.24 409.3 20.17 409.3 30.78 405 30.78 405 13"/><path class="cls-1" d="M440.01,13l6.15,17.77h-4.56l-.94-2.91h-6.63l-.94,2.91h-4.53l6.18-17.77h5.27ZM437.35,17.41l-2.1,6.66h4.23l-2.13-6.66Z"/><polygon class="cls-1" points="465.48 13 465.48 30.78 461.6 30.78 453.93 20.45 453.93 30.78 449.63 30.78 449.63 13 453.83 13 461.17 23.21 461.17 13 465.48 13"/><path class="cls-1" d="M480.39,13l6.15,17.77h-4.56l-.94-2.91h-6.63l-.94,2.91h-4.53l6.18-17.77h5.27ZM477.73,17.41l-2.1,6.66h4.23l-2.13-6.66Z"/><path class="cls-1" d="M489.7,18.24c.47-1.13,1.13-2.1,1.96-2.91.84-.81,1.81-1.44,2.92-1.89,1.11-.45,2.29-.67,3.52-.67.95,0,1.87.13,2.77.38.9.25,1.73.63,2.48,1.14.75.51,1.39,1.15,1.92,1.94.53.78.91,1.68,1.15,2.7h-4.83c-.32-.74-.8-1.31-1.44-1.71-.64-.4-1.38-.6-2.2-.6-.67,0-1.26.11-1.76.33-.5.22-.94.51-1.33.86-.39.35-.73.88-1.02,1.57-.3.69-.44,1.53-.44,2.51,0,1.59.43,2.86,1.28,3.83.85.97,1.97,1.46,3.35,1.46.73,0,1.42-.17,2.08-.49.66-.33,1.14-.76,1.46-1.3.31-.54.5-1.09.57-1.65h-5.75v-3.34h10.08c.12.49.18,1.11.18,1.85,0,1.27-.22,2.44-.66,3.53-.44,1.09-1.05,2.02-1.82,2.81-.78.78-1.69,1.39-2.73,1.81-1.05.42-2.15.63-3.32.63-1.23,0-2.4-.22-3.52-.67-1.11-.45-2.09-1.08-2.92-1.9-.84-.82-1.49-1.79-1.96-2.92-.47-1.13-.71-2.34-.71-3.64s.24-2.51.71-3.65"/><polygon class="cls-1" points="522 16.8 515.07 16.8 515.07 19.81 521.25 19.81 521.25 23.61 515.07 23.61 515.07 26.98 522 26.98 522 30.77 510.77 30.77 510.77 13 522 13 522 16.8"/><polygon class="cls-1" points="526.51 13 531.7 13 536.69 22.83 541.65 13 546.61 13 546.61 30.78 542.28 30.78 542.28 19.99 538.05 28.24 535.02 28.24 530.81 20.17 530.81 30.78 526.51 30.78 526.51 13"/><polygon class="cls-1" points="562.99 16.8 556.05 16.8 556.05 19.81 562.23 19.81 562.23 23.61 556.05 23.61 556.05 26.98 562.99 26.98 562.99 30.77 551.75 30.77 551.75 13 562.99 13 562.99 16.8"/><polygon class="cls-1" points="583.34 13 583.34 30.78 579.47 30.78 571.8 20.45 571.8 30.78 567.49 30.78 567.49 13 571.7 13 579.04 23.21 579.04 13 583.34 13"/><polygon class="cls-1" points="587.09 13 601.11 13 601.11 16.8 596.25 16.8 596.25 30.78 591.95 30.78 591.95 16.8 587.09 16.8 587.09 13"/><path class="cls-1" d="M336.74,39.22c1.21.43,2.24,1.04,3.11,1.82.87.78,1.54,1.73,2.02,2.83.48,1.11.72,2.3.72,3.58s-.24,2.47-.72,3.57c-.48,1.1-1.16,2.04-2.02,2.83s-1.91,1.4-3.11,1.83c-1.21.43-2.49.65-3.86.65h-6.23v-17.77h6.23c1.37,0,2.65.22,3.86.65M333,52.55c1.62,0,2.89-.46,3.81-1.38.92-.92,1.38-2.16,1.38-3.71s-.46-2.79-1.38-3.71c-.92-.92-2.19-1.38-3.81-1.38h-2.05v10.18h2.05Z"/><polygon class="cls-1" points="357.96 42.37 351.03 42.37 351.03 45.39 357.2 45.39 357.2 49.18 351.03 49.18 351.03 52.55 357.96 52.55 357.96 56.35 346.72 56.35 346.72 38.58 357.96 38.58 357.96 42.37"/><polygon class="cls-1" points="360.7 38.58 365.56 38.58 369.83 51.77 374.11 38.58 378.72 38.58 372.42 56.35 367 56.35 360.7 38.58"/><polygon class="cls-1" points="402.39 38.58 402.39 52.55 409.17 52.55 409.17 56.35 398.09 56.35 398.09 38.58 402.39 38.58"/><path class="cls-1" d="M412.11,43.82c.47-1.13,1.13-2.11,1.96-2.92.83-.82,1.81-1.45,2.92-1.9,1.11-.45,2.29-.67,3.52-.67s2.41.22,3.52.67c1.11.45,2.09,1.08,2.92,1.9.83.82,1.48,1.79,1.95,2.92.46,1.13.7,2.35.7,3.64s-.23,2.51-.7,3.65c-.46,1.13-1.11,2.11-1.95,2.92-.84.82-1.81,1.45-2.92,1.9-1.11.45-2.29.67-3.52.67s-2.4-.22-3.52-.67c-1.11-.45-2.09-1.08-2.92-1.9s-1.49-1.79-1.96-2.92c-.47-1.13-.71-2.35-.71-3.65s.24-2.51.71-3.64M423.92,43.7c-.85-.94-1.99-1.4-3.41-1.4s-2.58.47-3.43,1.4c-.85.94-1.28,2.19-1.28,3.76s.43,2.8,1.29,3.73,2,1.4,3.42,1.4,2.55-.47,3.41-1.4c.85-.94,1.28-2.18,1.28-3.73s-.43-2.82-1.28-3.76"/><path class="cls-1" d="M446.68,46.13c-.21.65-.56,1.26-1.05,1.83-.49.57-1.17,1.05-2.04,1.42-.87.37-1.91.56-3.13.56h-2.43v6.4h-4.3v-17.77h6.73c.78,0,1.55.11,2.33.32s1.48.56,2.1,1.04c.62.48,1.13,1.09,1.52,1.83.39.74.58,1.58.58,2.51,0,.59-.11,1.21-.32,1.86M440.46,46.4c.64,0,1.16-.2,1.54-.59.39-.4.58-.91.58-1.53s-.19-1.14-.58-1.54-.9-.61-1.54-.61h-2.43v4.28h2.43Z"/><polygon class="cls-1" points="450.74 38.58 455.93 38.58 460.92 48.4 465.88 38.58 470.84 38.58 470.84 56.35 466.51 56.35 466.51 45.56 462.28 53.82 459.25 53.82 455.04 45.74 455.04 56.35 450.74 56.35 450.74 38.58"/><polygon class="cls-1" points="487.22 42.37 480.28 42.37 480.28 45.39 486.46 45.39 486.46 49.18 480.28 49.18 480.28 52.55 487.22 52.55 487.22 56.35 475.98 56.35 475.98 38.58 487.22 38.58 487.22 42.37"/><polygon class="cls-1" points="507.57 38.58 507.57 56.35 503.7 56.35 496.03 46.02 496.03 56.35 491.72 56.35 491.72 38.58 495.93 38.58 503.27 48.78 503.27 38.58 507.57 38.58"/><polygon class="cls-1" points="511.32 38.58 525.34 38.58 525.34 42.37 520.48 42.37 520.48 56.35 516.18 56.35 516.18 42.37 511.32 42.37 511.32 38.58"/><path class="cls-2" d="M336.18,77.65l-1.35-4.15-1.35,4.15h2.69ZM337.32,81.17h-4.97l-.74,2.25h-4.9l5.45-14.91h5.39l5.43,14.91h-4.93l-.74-2.25Z"/><path class="cls-2" d="M357.02,68.51v8.4c0,.69.15,1.23.45,1.63.3.4.79.6,1.46.6s1.17-.2,1.5-.6c.32-.4.48-.94.48-1.63v-8.4h4.65v8.4c0,1.42-.3,2.63-.88,3.63-.59,1-1.4,1.76-2.42,2.26-1.02.51-2.17.76-3.43.76s-2.38-.25-3.36-.76c-.98-.5-1.74-1.25-2.28-2.25-.55-1-.82-2.21-.82-3.64v-8.4h4.65Z"/><path class="cls-2" d="M377.43,82.31c-1.16-.83-1.79-2.06-1.88-3.67h4.97c.07.86.45,1.28,1.14,1.28.25,0,.47-.06.64-.18.18-.12.26-.31.26-.56,0-.35-.19-.64-.57-.85-.38-.22-.97-.47-1.77-.75-.95-.34-1.74-.67-2.37-.99-.62-.32-1.16-.79-1.61-1.41-.45-.62-.67-1.41-.65-2.38,0-.97.25-1.79.75-2.47.5-.68,1.18-1.19,2.04-1.54.86-.35,1.83-.53,2.92-.53,1.82,0,3.27.42,4.35,1.26,1.07.84,1.64,2.03,1.69,3.56h-5.03c-.01-.42-.12-.72-.32-.9-.2-.18-.43-.27-.71-.27-.2,0-.36.07-.48.2-.13.13-.19.32-.19.56,0,.34.19.61.56.83.37.22.96.48,1.78.79.94.35,1.71.69,2.33,1.01.61.32,1.14.77,1.59,1.35.45.57.67,1.3.67,2.17s-.23,1.73-.67,2.45c-.45.72-1.1,1.29-1.96,1.69-.86.41-1.88.61-3.05.61-1.78,0-3.25-.42-4.41-1.25"/><polygon class="cls-2" points="409.29 68.51 409.29 72.22 405.33 72.22 405.33 83.42 400.66 83.42 400.66 72.22 396.75 72.22 396.75 68.51 409.29 68.51"/><path class="cls-2" d="M423.65,74.96h1.85c.45,0,.79-.1,1.01-.3.23-.21.34-.52.34-.96,0-.39-.12-.7-.35-.93-.23-.22-.57-.33-1-.33h-1.85v2.53ZM426.47,83.42l-2.8-5.35h-.02v5.35h-4.67v-14.9h6.95c1.21,0,2.24.22,3.1.64.85.43,1.5,1.01,1.93,1.75.43.74.64,1.57.64,2.5,0,1-.28,1.88-.83,2.65-.56.77-1.35,1.33-2.39,1.66l3.24,5.7h-5.14Z"/><path class="cls-2" d="M449.92,77.65l-1.35-4.15-1.35,4.15h2.69ZM451.06,81.17h-4.97l-.74,2.25h-4.9l5.45-14.91h5.39l5.43,14.91h-4.93l-.74-2.25Z"/><polygon class="cls-2" points="470.87 79.88 475.37 79.88 475.37 83.42 466.19 83.42 466.19 68.51 470.87 68.51 470.87 79.88"/><rect class="cls-2" x="485.27" y="68.51" width="4.67" height="14.9"/><path class="cls-2" d="M508.89,77.65l-1.35-4.15-1.35,4.15h2.7ZM510.02,81.17h-4.97l-.74,2.25h-4.91l5.45-14.91h5.39l5.43,14.91h-4.93l-.74-2.25Z"/><polygon class="cls-1" points="393.33 42.38 386.39 42.38 386.39 45.39 392.57 45.39 392.57 49.18 386.39 49.18 386.39 52.55 393.33 52.55 393.33 56.35 382.09 56.35 382.09 38.58 393.33 38.58 393.33 42.38"/></g></svg>