<?xml version="1.0" encoding="UTF-8"?>
<svg version="1.1" viewBox="0 0 2048 985" width="3508" height="1688" xmlns="http://www.w3.org/2000/svg">
<path transform="translate(1347,565)" d="m0 0h7l2 2-1 9-9 25-10 33-7 30-5 28-4 31v17l4-1 17-12 16-9 6-2h13l8 4 5 8 2 12 1 2 10-1 10-5 7-20 3-4 6-1 5 5-2 10-4 18v10l9-1 8-7 15-25 9-17 9-12 8-6 9-1 6 3 3 5 3 16 3 45 9-3 18-9h8l1 1v7l-5 4-22 14-8 5-4 9-12 39-8 20-6 11-9 12-9 9-10 6-3 1h-10l-6-4-5-6-2-4v-12l6-18 7-14 8-11 11-12 14-14 8-7 5-5 4-5 2-6v-53l-2-6-4 1-16 29-12 19-9 11-9 6-5 1h-8l-9-3-4-5-1-3v-7l-18 7-8 6-7 10-8 11-10 11-13 10-10 6-11 4-10 1-6-3-2-3v-10l4-8 6-7 14-11 19-11 16-9 6-7 1-3v-10l-3-7-9 1-14 7-13 10-7 8-7 14-4 14-4 4h-6l-3-4-1-21-1-5-13 7-9 11-6 6h-7l-5-5-4-9-5-24-3-9-8 5-11 14-13 19-9 12-9 2-4-2-4-13-2-11-5 2-10 7-7 7-6 12-5 23-8 24-8 17-9 14-6 7-10 7-10 4h-7l-6-3-5-6-2-6v-17l4-13 8-16 10-14 9-10 7-8 8-7 15-14 4-6 3-23-5 2-12 13-7 8-12 12-8 3-6-1-5-4-1-2v-11l-10 7-5 2-7-1-5-5-5-12-2-7-5-1-13 16-7 8-7 6-11 6h-9l-7-4-4-8-2-8v-15l3-19 4-11 5-4h6l2 2-1 10-3 13v27l1 4 5-1 11-10 10-14 13-22 7-10 4-3 5 1 4 5 3 29 3 10 2 2 6-1 8-9 11-21 9-9 10-5 9-2h32l2 3v42h5l14-9 2-6 5-40 7-40 10-43 7-24 6-16 4-4 6 1 2 2-1 9-11 40-7 30-8 43-4 31-2 26 2 7 5-5 11-12 9-11 9-10 10-6h9l5 6 6 35 3 6h3l2-5 5-5 17-10 3-5 4-42 5-32 6-26 7-25 10-29 8-16zm-209 154-10 4-9 8-6 12-1 5v9l2 3 4-1 9-9 7-8 8-11 3-6v-5l-1-1zm219 57-11 6-13 10-8 8v3l7-1 14-9 9-8 5-8zm-213 17-8 6-12 12-11 15-8 16-4 13v13l2 3 7-1 13-13 9-15 8-19 6-22v-8zm340 2-10 6-10 10-10 13-8 14-6 15-1 5 3 9 5 1 8-6 9-10 9-15 8-19 5-18-1-5z" fill="#B79257"/>
<path transform="translate(1394,194)" d="m0 0 19 1 20 4 19 7 16 9 14 11 9 9 11 15 9 17 7 21 3 19v26l-3 18-5 16-9 19-9 13-11 12-10 9-14 9-17 8-17 5-21 3h-19l-21-3-17-5-19-9-14-10-10-9-9-10-10-15-8-17-5-17-3-19v-22l3-20 5-16 7-16 7-11 8-10 9-10 16-12 14-8 19-7 20-4zm-10 31-15 3-15 6-14 9-10 9-7 8-9 15-6 17-3 16v23l4 20 6 15 8 13 9 10 10 9 13 8 13 5 14 3h27l17-4 14-6 13-9 14-14 8-13 6-13 4-16 1-6v-26l-3-16-6-16-8-14-11-12-9-8-16-9-15-5-11-2z" fill="#3B5469"/>
<path transform="translate(895,194)" d="m0 0 23 1 19 3 18 6 17 9 11 9 3 4-12 13-7 7-3 4-4-2-10-8-16-8-14-4-12-2h-23l-15 3-13 5-11 6-10 8-9 9-9 14-6 14-4 15-1 6v27l4 18 7 16 8 12 9 10 11 9 10 6 16 6 14 3h31l18-3 18-6 4-2 1-66h-53v-31h85l1 1v117l-15 8-18 6-21 5-26 3h-22l-22-3-20-6-16-8-14-9-12-11-10-11-11-18-8-20-4-18-1-8v-27l3-18 7-21 9-17 9-12 9-10 9-8 15-10 15-7 20-6 12-2z" fill="#3B556A"/>
<path transform="translate(1064,201)" d="m0 0h101l15 3 13 5 11 7 10 10 6 10 4 12 2 13v12l-3 14-8 16-11 12-10 7-11 5-15 4 11 18 36 57 15 24 4 6v3h-40l-9-15-42-72-10-17-36-1v104l-1 1h-32zm33 28v76h57l14-3 10-5 7-7 4-7 2-9v-14l-3-11-7-9-9-6-9-3-12-2z" fill="#3A5469"/>
<path transform="translate(78,201)" d="m0 0h32v98h125v-98h33v238h-33v-109h-125v109h-32z" fill="#3A5469"/>
<path transform="translate(1809,201)" d="m0 0h156v29l-1 1h-122v71h114v30h-114v76h128l1 1v29l-1 1h-161z" fill="#3A5469"/>
<path transform="translate(565,201)" d="m0 0h155v30h-123l1 70 114 1v30l-114 1-1 75h129v31h-161z" fill="#3A5469"/>
<path transform="translate(563,543)" d="m0 0h7l3 3 2 4-1 10-7 21-3 5-2 1-7 30-6 35-4 33-2 24-1 23v26l2 22 4 19 5 12 4 4 5 1 7-3 6-5 10-14 9-16 8-17 17-43 20-51 10-23 10-19 6-5h8l8 7 4 11 2 8 4 49 4 78 3 27 4 17 6 16 4 7 2 1 9-1 9-6 11-16 9-16 8-21 7-25 7-33 5-33 3-32v-38l-3-23-5-24-3-11 1-5 7-1 4 3 7 21 4 20 2 24v33l-2 29-4 32-6 31-10 38-9 27-9 19-10 15-5 6-9 6-6 2h-12l-8-4-8-9-6-12-6-21-4-26-9-119-2-24-1-4-8 15-40 100-10 23-8 16-7 11-8 10-8 8-11 6h-10l-10-5-7-7-8-16-4-15-3-22v-59l4-42 7-46 7-33 7-24 8-18z" fill="#B79257"/>
<path transform="translate(1549,201)" d="m0 0h38l21 58 18 49 23 63 8 22 5-12 66-174 3-6h36l-10 26-43 107-16 41-25 62-1 2h-31l-19-48-17-44-32-82-19-49-5-13z" fill="#3B5569"/>
<path transform="translate(309,201)" d="m0 0h42l7 10 12 20 15 23 12 20 14 22 4 6v2l4-4 16-25 15-23 33-51h40l-5 9-29 43-29 44-26 39-1 102-1 1h-32l-1-102-29-44-29-43-29-44z" fill="#3A5469"/>
<path transform="translate(949,551)" d="m0 0h7l3 2 1 6-4 20-9 42-12 54-7 37-4 29-2 22v44l5 27 4 7v5l-5 4-5-1-6-7-4-11-3-21v-46l4-42 6-36 16-76v-3l-5 12-35 116-12 39-6 11-5 6-6 3h-6l-6-4-5-9-2-9-1-13v-16l2-26 6-37 11-53 8-34 4-13 2-4 6-1 4 4-1 8-10 37-8 39-6 36-2 21-1 28 1 17 3 7 4-2 5-12 13-43 19-65 10-33 11-29 9-19 8-13z" fill="#B79257"/>
<path transform="translate(1631,713)" d="m0 0h339v12h-339z" fill="#B79257"/>
<path transform="translate(78,713)" d="m0 0h338v12h-338z" fill="#B79257"/>
<path transform="translate(964,699)" d="m0 0h7l4 5 11 23 3 10v10l-3 12-5 10-9 10-8 5-4 1h-8l-9-3-6-7-2-7v-17l4-16 5-11 7-12 7-9zm-2 22-4 5-6 14-3 12v17l4 4 7-1 6-5 7-12 2-8v-10l-4-12-4-4z" fill="#B79257"/>
<path transform="translate(820,694)" d="m0 0h5l3 3v10l-5 64-3 6-6 1-5-5v-24l5-46 3-7z" fill="#B79257"/>
<path transform="translate(828,651)" d="m0 0h6l3 4-2 9-7 14-2 2-6-1-3-4 1-9 5-10z" fill="#B79257"/>
</svg>
