<?xml version="1.0" encoding="UTF-8"?>
<svg version="1.1" viewBox="0 0 2048 804" width="1392" height="547" xmlns="http://www.w3.org/2000/svg">
<path transform="translate(0)" d="m0 0h2048v804h-2048z" fill="#FDFDFD"/>
<path transform="translate(2043)" d="m0 0h5v804h-2048v-37l859-1-26-6-21-8-13-7-12-9-9-9-9-14-5-11-4-14v-8l3-3 14-1 47 1 6 5 8 15 9 9 14 7 12 3 8 1h27l21-3 13-4 11-6 8-7 7-11 5-14 2-11 1-12v-17l-1-19-15 16-14 11-16 8-15 5-21 3h-27l-19-3-17-5-21-10-16-12-12-12-11-15-11-23-5-15-4-20-2-18v-31l3-20 6-21 8-18 10-16 11-13 8-8 13-10 15-9 20-8 17-4 17-2h17l22 3 17 5 16 8 13 10 9 9 4 5v2h2l-1-27 3-5 1-1h62l4 4 1 3v263l-2 23-4 20-5 15-8 15-10 13-8 8-14 10-21 10-24 7-15 3 1107 1z" fill="#EF8337"/>
<path transform="translate(0)" d="m0 0h292l31 76 19 47 22 54 15 37 20 49 6 17 2 11v11l-3 10-6 10-7 7-13 8-35 17-28 13-27 13-28 13-27 13-28 13-40 19-72 34-74 35-17 8h-2z" fill="#FEFEFE"/>
<path transform="translate(2043)" d="m0 0h5v804h-2048v-37h2043z" fill="#232426"/>
<path transform="translate(1881,364)" d="m0 0h37l17 3 16 5 16 7 16 10 10 8 12 11 12 15 10 17 7 17 6 21 2 14v32l-4 5-4 2-205 1-6 2v11l4 16 8 16 7 9 9 8 14 8 11 4 19 3 17-1 17-4 14-6 10-8 10-13 7-9 5-4 3-1h59l-1 8-5 16-8 15-9 12-11 12-13 11-19 11-21 8-19 4-17 2h-34l-20-3-15-4-16-6-15-8-14-10-13-12-10-12-10-17-7-17-5-17-3-18-1-10v-32l3-19 6-20 8-18 10-16 9-11 9-10 10-9 13-9 17-9 21-7 16-3z" fill="#EF8337"/>
<path transform="translate(1259,362)" d="m0 0h22l20 3 20 6 19 10 11 9 7 7 9 14 6 18 1 7 1 20 1 149v40l-6 7-3 1h-53l-6-4-2-4-1-113-1-50-1-18-3-14-5-12-7-10-9-7-12-5-11-2h-10l-16 3-16 6-11 7-11 11-7 11-5 13-2 14-1 166-2 5-3 3-4 1h-50l-8-1-3-3-1-3v-271l4-5h62v32l9-6 14-12 14-9 13-6 16-5z" fill="#EF8337"/>
<path transform="translate(1602,285)" d="m0 0h53l5 2 3 4 1 73 4 5 3 1 45 1 5 4 1 4v27l-2 8-4 5-7 2-14 1-28 1-2 1-1 4v152l2 13 4 8 8 5 10 2h14l19-1v51l-10 2-18 2h-32l-19-3-17-5-11-6-6-5-7-10-4-11-3-18-1-22-1-153-3-5-1-1-22-1-16-1-5-6v-44l41-1 5-3 1-2 1-71 3-7z" fill="#EF8337"/>
<path transform="translate(885,416)" d="m0 0h21l16 3 13 5 11 7 10 10 7 11 7 16 4 14 2 12 1 17-2 18-4 17-6 16-7 12-9 10-9 8-15 8-11 3-7 1h-19l-18-4-16-8-12-10-9-13-7-15-5-19-2-14v-20l4-23 5-17 7-14 8-10 9-8 10-6 13-5z" fill="#FEFEFE"/>
<path transform="translate(292)" d="m0 0 5 1 19 39 11 23 12 25 16 34 19 39 13 28 22 45 13 28 8 13 7 8 10 6 10 3h12l16-4 37-16 56-24 53-23 42-18 53-23 86-37 56-24 19-8 3-1h7l-4 3-24 12-28 13-36 17-68 32-98 46-98 46-28 13-22 11-10 7-5 4-7 10-3 8-1 11 3 16 6 17 16 38 15 37 19 46 20 49 18 44 20 49 5 13v4h-2l-12-23-29-60-11-23-14-29-11-23-14-29-16-34-22-45-9-19-8-11-9-8-8-4-9-2-16 1-16 5-31 13-233 101-104 45-13 5v-5l31-15 28-13 29-14 28-13 40-19 36-17 108-51 70-33 15-8 9-7 6-7 5-11 1-5v-11l-3-15-14-35-20-49-15-37-22-54-19-47-13-32-8-20z" fill="#063CA3"/>
<path transform="translate(1498,393)" d="m0 0h4v253l-3 7-4 2h-55l-7-4-2-4v-217l4-6 7-5 33-15z" fill="#EF8337"/>
<path transform="translate(640,392)" d="m0 0 20 9 25 12 18 8 6 6 1 3v219l-4 5-3 1h-56l-5-3-2-3z" fill="#EF8337"/>
<path transform="translate(1894,415)" d="m0 0 15 1 15 4 13 7 11 9 9 11 8 16 5 19v3h-143l-5-5 1-9 5-13 7-12 11-12 13-9 13-6 13-3z" fill="#FEFEFE"/>
<path transform="translate(1459,250)" d="m0 0h16l12 4 11 8 6 9 4 11 1 5v12l-4 13-6 9-9 8-12 5-4 1h-14l-12-4-9-6-7-7-7-14-1-4v-15l4-12 7-10 7-6 10-5z" fill="#EF8337"/>
<path transform="translate(667,250)" d="m0 0h16l12 4 11 8 8 11 4 13v13l-3 10-6 10-8 8-12 6-8 2h-13l-10-3-10-6-7-7-6-12-2-9v-11l3-12 5-9 6-7 10-6z" fill="#EF8337"/>
</svg>
