<?xml version="1.0" encoding="utf-8"?>
<!-- Generator: Adobe Illustrator 23.0.3, SVG Export Plug-In . SVG Version: 6.00 Build 0)  -->
<svg version="1.1" id="Layer_1" xmlns="http://www.w3.org/2000/svg" xmlns:xlink="http://www.w3.org/1999/xlink" x="0px" y="0px"
	 viewBox="0 0 652.2 283.5" style="enable-background:new 0 0 652.2 283.5;" xml:space="preserve">
<style type="text/css">
	.st0{fill:#1a1a1a;}
</style>
<path class="st0" d="M368.1,82.6h-5V48.9h5v7.3c1.9-4.6,6.4-8.1,12.8-8.1c4.6,0,8,1.5,10.1,4.2c2.1,2.5,3,5.8,3,10.5v19.8h-5V64.3
	c0-6.6-2.8-11.7-9.8-11.7c-7.5,0-11.1,6.6-11.1,12.8C368.1,65.4,368.1,82.6,368.1,82.6z M440,65.8c0,9.5-7,17.7-17.8,17.7
	c-10.7,0-17.7-8.2-17.7-17.7c0-9.6,7-17.7,17.7-17.7C433,48.1,440,56.2,440,65.8z M435.1,65.8c0-7.2-5-13.2-12.9-13.2
	c-7.7,0-12.7,6-12.7,13.2c0,7.1,5,13.1,12.7,13.1C430.1,78.9,435.1,72.9,435.1,65.8z M625.8,65.3c0-6.2,3.7-12.8,11.1-12.8
	c7,0,9.8,5.1,9.8,11.7v18.4h5V62.8c0-4.7-0.9-8-3-10.5c-2.1-2.7-5.6-4.2-10.1-4.2c-6.4,0-10.9,3.5-12.8,8.1v-7.3h-5v33.8h5V65.3z
	 M454.8,67.6c0-7.8,3.8-14.6,12-14.6c1.2,0,1.9,0.1,3.2,0.5v-4.6c-0.8-0.4-2-0.5-3.2-0.5c-5.1,0-10.1,3-12,8.4v-7.9h-5v33.8h5
	C454.8,82.7,454.8,67.6,454.8,67.6z M596.5,67.6c0-7.8,3.8-14.6,12-14.6c1.2,0,1.9,0.1,3.2,0.5v-4.6c-0.8-0.4-2-0.5-3.2-0.5
	c-5.1,0-10.1,3-12,8.4v-7.9h-5v33.8h5C596.5,82.7,596.5,67.6,596.5,67.6z M525.5,48.1c-6.4,0-10.9,3.5-12.8,8.1V29.3h-5v53.3h5V65.3
	c0-6.2,3.7-12.8,11.1-12.8c7,0,9.8,5.1,9.8,11.7v18.4h5V62.8c0-4.7-0.9-8-3-10.5C533.5,49.6,530.1,48.1,525.5,48.1z M498,78.1
	c-1.2,0.2-3.4,0.4-4.7,0.4c-3.6,0-6.2-0.9-6.2-8.2V53.1h9.8v-4.3H487V36.4h-5v12.5h-6.8v4.3h6.8v18.2c0,10.8,5.9,11.7,10.3,11.7
	c2.1,0,4.4-0.2,5.7-0.5C498,82.6,498,78.1,498,78.1z M580.5,63.2c0,0.9,0,2.1-0.2,3.7h-27.1c0.2,6.6,3.6,12.3,11.9,12.3
	c5.6,0,8.8-2.8,9.9-6.2h5c-1.1,5.6-6.6,10.5-14.9,10.5c-11.4,0-16.8-8.2-16.8-17.8c0-10.1,6-17.6,16.6-17.6
	C573.7,48.1,580.5,54.6,580.5,63.2z M575.6,63c0-6.6-4.8-11-10.9-11c-6.7,0-11.1,4.2-11.4,11H575.6L575.6,63z M513.2,155.9
	c-8.2,0-12.1-6.2-12.1-13.2c0-6.9,4-13.2,11.9-13.2c7.2,0,10.2,4,10.7,8.7h5c-0.5-6.6-5-13.2-15.8-13.2c-11,0-16.8,8.5-16.8,17.7
	s5.9,17.8,16.8,17.8c9.8,0,14.9-5.5,15.9-12.4h-5C522.8,152.6,519.7,155.9,513.2,155.9L513.2,155.9z M558.4,125.1
	c-6.4,0-10.9,3.5-12.8,8.1v-26.9h-5v53.3h5v-17.3c0-6.2,3.7-12.8,11.1-12.8c7,0,9.8,5.1,9.8,11.7v18.4h5v-19.8c0-4.7-0.9-8-3-10.5
	C566.4,126.6,562.9,125.1,558.4,125.1L558.4,125.1z M398.6,142.7c0,9.5-7,17.7-17.5,17.7c-5.9,0-10.9-3.2-13.1-7.9v7.1h-5v-53.3h5
	V133c2.2-4.8,7.2-7.9,13.1-7.9C391.6,125.1,398.6,133.1,398.6,142.7L398.6,142.7z M393.7,142.7c0-7.2-5-13.2-12.7-13.2
	c-7.9,0-12.9,6-12.9,13.2c0,7.1,5,13.1,12.9,13.1C388.7,155.9,393.7,149.8,393.7,142.7z M479.6,125.8h5v33.8h-5v-7.1
	c-2.2,4.7-7.2,7.9-13.1,7.9c-10.4,0-17.5-8.2-17.5-17.7c0-9.6,7-17.7,17.5-17.7c5.9,0,10.9,3.1,13.1,7.9V125.8L479.6,125.8z
	 M479.6,142.7c0-7.2-5-13.2-12.9-13.2c-7.7,0-12.7,6-12.7,13.2c0,7.1,5,13.1,12.7,13.1C474.6,155.9,479.6,149.8,479.6,142.7z
	 M615.4,140.2c0,0.9,0,2.1-0.2,3.7h-27.1c0.2,6.6,3.6,12.3,11.9,12.3c5.6,0,8.8-2.8,9.9-6.2h5c-1.1,5.6-6.6,10.5-14.9,10.5
	c-11.4,0-16.8-8.2-16.8-17.8c0-10.1,6-17.6,16.6-17.6C608.5,125.1,615.4,131.6,615.4,140.2z M610.5,139.9c0-6.6-4.8-11-10.9-11
	c-6.7,0-11.1,4.2-11.4,11H610.5L610.5,139.9z M439.7,140.2c0,0.9,0,2.1-0.2,3.7h-27.1c0.2,6.6,3.6,12.3,11.9,12.3
	c5.6,0,8.8-2.8,9.9-6.2h5c-1.1,5.6-6.6,10.5-14.9,10.5c-11.4,0-16.8-8.2-16.8-17.8c0-10.1,6-17.6,16.6-17.6
	C432.9,125.1,439.7,131.6,439.7,140.2z M434.9,139.9c0-6.6-4.8-11-10.9-11c-6.7,0-11.1,4.2-11.4,11H434.9z M641.2,141.1
	c-6.5-1.8-10.2-2.4-10.2-6.4c0-3.6,3.1-5.6,7.5-5.6c5.1,0,8.2,2.5,8.2,7.2h4.9c0-6.9-5.6-11.2-13-11.2c-7.2,0-12.5,3.4-12.5,9.6
	c0,6.3,4.6,7.8,10.2,9.1c6.5,1.8,11.1,2.4,11.1,6.8c0,3.7-3,5.7-8.1,5.7c-5.3,0-9.5-2.1-9.5-8.2h-4.9c0,8.5,6.5,12.3,14.1,12.3
	c7.8,0,13-3.4,13-9.9C652.2,143.9,646.8,142.5,641.2,141.1L641.2,141.1z"/>
<path class="st0" d="M388.8,213.2c-0.5-4.7-3.5-8.7-10.7-8.7c-7.8,0-11.9,6.3-11.9,13.2c0,7,3.9,13.2,12.1,13.2
	c6.6,0,9.6-3.3,10.7-7.8h5c-1.1,6.9-6.1,12.4-15.9,12.4c-11,0-16.8-8.5-16.8-17.8c0-9.1,5.9-17.7,16.8-17.7
	c10.8,0,15.2,6.6,15.8,13.2L388.8,213.2L388.8,213.2z M404.6,217.8c0-9.6,7-17.7,17.7-17.7c10.8,0,17.8,8.1,17.8,17.7
	c0,9.5-7,17.7-17.8,17.7C411.6,235.5,404.6,227.3,404.6,217.8z M435.2,217.8c0-7.2-5-13.2-12.9-13.2c-7.7,0-12.7,6-12.7,13.2
	c0,7.1,5,13.1,12.7,13.1C430.2,230.9,435.2,224.9,435.2,217.8z M481.4,200.9v33.8h-5v-7.3c-1.9,4.6-6.4,8.2-12.8,8.2
	c-4.5,0-8-1.6-10.1-4.3c-2.1-2.5-3-5.8-3-10.5V201h5v18.4c0,6.6,2.7,11.7,9.8,11.7c7.5,0,11.1-6.6,11.1-12.8V201L481.4,200.9
	L481.4,200.9z M495.7,200.9h5v7.3c1.9-4.6,6.4-8.1,12.8-8.1c4.6,0,8,1.5,10.1,4.2c2.1,2.5,3,5.8,3,10.5v19.8h-5v-18.4
	c0-6.6-2.8-11.7-9.8-11.7c-7.5,0-11.1,6.6-11.1,12.8v17.3h-5V200.9L495.7,200.9z M563.9,213.2c-0.5-4.7-3.5-8.7-10.7-8.7
	c-7.8,0-11.9,6.3-11.9,13.2c0,7,3.9,13.2,12.1,13.2c6.6,0,9.6-3.3,10.7-7.8h5c-1.1,6.9-6.1,12.4-15.9,12.4c-11,0-16.8-8.5-16.8-17.8
	c0-9.1,5.9-17.7,16.8-17.7c10.8,0,15.2,6.6,15.8,13.2L563.9,213.2L563.9,213.2z M584.1,182.2c2.2,0,4,1.8,4,4s-1.8,3.9-4,3.9
	s-3.9-1.7-3.9-3.9S581.9,182.2,584.1,182.2z M581.7,200.9h5v33.8h-5V200.9z M602.7,181.3h5v53.3h-5V181.3z"/>
<path class="st0" d="M16.7,75.6C34.1,45.4,63.1,22,104.8,22c31.7,0,57.5,14.6,75.5,35.3c0.3,0.3-0.1,0.7-0.4,0.5
	c-18.9-10.9-43-8.7-68.6,5.9c-0.7,0.4-1.5-0.3-1.2-1c2.5-6.6,4.4-14.2,5.5-21.1c0.1-0.7-0.7-1.3-1.3-0.8
	c-10.8,7.5-17.5,19.3-21.9,28.4c-0.3,0.6-1,0.7-1.4,0.2c-4.2-5.3-7.1-11.1-9.1-17.2c-0.2-0.7-1.2-0.8-1.6-0.1
	c-4.3,8.6-1.7,18.9,3,26.6c0.4,0.6-0.1,1.3-0.8,1.3C70,79.8,71.8,57.3,53.4,57.3c-11.8,0-26.9,10.9-35.6,19.1
	C17.2,77,16.3,76.3,16.7,75.6z M86.8,15c50.7-9,95.4,19.1,116.4,59.9c0.1,0.2,0.4,0.1,0.4-0.1c-0.7-10.6-4-20.5-9.5-29.2
	c-0.1-0.1,0-0.2,0.1-0.1C213.3,57.3,225,75.7,226.5,97c0,0.2,0.4,0.3,0.4,0.1c18-46.9-11.8-89.4-65.5-96.1
	c-27.2-3.4-54.1,1.4-74.7,13.6C86.5,14.8,86.6,15.1,86.8,15z M104.9,93.2c0-4.3-3.4-8-7.6-8c-3.4,0-5.9,2.6-5.9,5.6
	c0,4.7,4.2,8.1,8.2,8.1C103.3,99,104.9,95.9,104.9,93.2z M97.9,117c-11.7,0-15.5-8.4-24.1-8.4c-9,0-12.6,8.3-12.6,12.2
	c0,8.7,7.5,18.7,18.6,18.7c3.6,0,7.6-0.9,11-3.2c0.2-0.1,0.5-0.1,0.5,0.2c0.6,1.8,1.1,3.8,1.1,5.8c0,11.4-10.6,20.2-24.5,20.2
	c-21.6,0-28.3-22.8-28.3-31.8c0-18,16.4-32.8,26.2-31.4c0.2,0,0.3-0.2,0.2-0.3c-0.9-1.8-2.9-4-5.8-4c-6.8,0-8.7,7.6-15.5,7.6
	c-2,0-3.3-0.8-4.5-1.9c-0.1-0.1-0.2-0.2,0-0.4c1.2-1.1,2.2-2.6,2.2-4.2c0-2.5-1-3.8-1-6.4c0-7.2,8.3-13.6,16-13.6
	c19.2,0,22.4,30.6,42.1,30.6c7.4,0,13-5.8,13-13.5c0-4.1-2-5.8-2.5-6.6c-0.2-0.2,0-0.5,0.3-0.4c4.1,1.6,7.6,5.4,7.6,11.9
	C118,108,108.3,117,97.9,117z M61.9,149.8c0,3.5,3.5,6.2,7.5,6.2s7.2-2.8,7.2-6.1c0-2.3-2.6-6.5-7.7-6.5
	C65.5,143.3,61.9,146,61.9,149.8L61.9,149.8z M125.9,162.5c-4.3,0.6-12.9-3.7-16.6-7.8c-0.4-0.5-1.2-0.3-1.5,0.2
	c-0.3,0.6-0.4,1.2-0.4,1.8c0,13.9,41.4,37.9,58,37.9c32.9,0,0.3-56-2.4-63.1c-1.5-3.9-3.1-7.5-3.2-12.2c0-0.6-0.6-1.1-1.2-0.9
	c-6.6,1.8-6,11.3-5.3,16.5c0.1,0.8,0.3,2.2,0.6,3.7c0.1,0.3-0.3,0.6-0.6,0.4c-8.1-6.6-12.1-17.7-13.3-27.8c-0.1-0.5-0.5-0.9-1-0.8
	c-4,0.1-5.2,4.2-5.6,6.3c-1.2,6.7,2.7,16.7,5.4,23.1c0.2,0.4-0.3,0.7-0.6,0.4c-9.7-10.1-15.1-20.3-14.6-28.1c0-0.5-0.4-0.9-0.9-0.9
	c-4.9,0-5.8,5.3-5.8,8.7c-0.2,10.3,8,20.8,13.6,29c0.2,0.3-0.1,0.7-0.4,0.6c-8.6-2-16.2-10.6-19.2-18.2c-0.2-0.6-0.9-0.8-1.4-0.5
	c-10.1,8,9.8,26.3,16.6,31C126.4,162,126.3,162.4,125.9,162.5L125.9,162.5z M75.7,133.6c-0.1,0.1-0.1,0.3,0.1,0.4
	c4.6,1,13.8,0.7,13.8-6.8c0-4.6-4.1-8.2-5.8-9.3c-1.2-0.7-3.3-0.2-2.8,1.5C81.9,122.8,83.4,128.7,75.7,133.6L75.7,133.6z
	 M33.6,151.6h2.7c0.2,0,0.2-0.2,0.1-0.3c-11.2-13-13.2-30.4-5-43.7c0.1-0.1,0-0.3-0.2-0.3c-2.1,0.5-6.4,1.9-13.4,6.7
	c-0.7,0.5-1.6,0-1.6-0.8c0-8,4.6-22.6,10.9-29c0.2-0.2,0-0.6-0.3-0.5C0,89-0.7,135,0.2,151.2c0,0.1,0.2,0.2,0.3,0.1
	c1.2-0.9,5.4-3.9,11.4-3.9C20.1,147.4,25.1,151.6,33.6,151.6z M67.2,232.9c0.2-0.1,0.1-0.4-0.1-0.5c-11.4-6.6-15.6-18.1-18.2-29.9
	c-3-13.7-7.9-25.8-18.4-25.8c-12,0-4.4,22.7-1.7,28.9c0.2,0.4-0.4,0.7-0.7,0.4c-5.1-5.3-8.8-18.5-13.4-18.5c-1.2,0-7.9,2.6,2.5,22.8
	C29,233.5,59.1,239.5,67.2,232.9z M243.1,227.7c-12.8,13-20.4,26.3-17,29.7c2.6,2.6,10.7-1.5,20.1-9.2
	c14.5-12.2,25.5-26.2,34.8-39.7c0,0,0-0.1-0.1-0.1C270.3,209.5,255.8,214.8,243.1,227.7L243.1,227.7z M327.3,153
	c-3.1-0.9-6.4-1.4-9.8-1.4c-26.8,0-36.5,11.5-56.2,18.3c-0.4,0.1-0.7,0.5-0.8,0.9c-1.5,4.9-6.3,18.7-15.9,22.7
	c3.5-7,2.3-16.3,1.6-19.6c0-0.2-0.2-0.3-0.4-0.3c-4.8,0.7-10.1,1.1-16.2,1.1c-15.2,0-29.3-4.5-40.8-12.2c-0.4-0.3-1,0-0.9,0.5
	c2.5,44.2,37.5,35.6,37.5,50.6c0,12.8-28.5,35.2-44.8,35.2c-17.1,0-11-13.2-9.9-15.6c0.5-1.1,1.9-3.2,0.1-4
	c-0.7-0.3-2.2,0.1-3.1,0.4c-6.4,2.4-28.2,26.3-67.9,26.3c-16.8,0-34.9-3.5-54.2-11.3c-0.8-0.3-1.4,0.7-0.8,1.2
	c25.1,23.4,58.8,37.7,95.8,37.7c75,0,68.7-38.9,101.8-67c21-17.8,38.6-10.9,52.1-28.5c12.8-16.7,20.7-31.5,32.9-34.2
	C327.7,153.7,327.8,153.1,327.3,153L327.3,153z M137,92.4v-0.7c-0.3-3.8-3.1-6.7-6.3-6.6s-5.6,3.3-5.3,7c0.1,1.9,0.9,3.5,2,4.7
	c1.1,1.2,2.5,1.9,4.1,1.9c3.6,0,6.2-1.4,8.8-2.4c5.8-2.1,12.1-2.4,18.1-1c0.4,0.1,0.9-0.2,0.9-0.6c2.1-11.3,7.2-21.7,14.5-30.3
	c0.3-0.4,0.2-0.9-0.3-1.1c-12.6-4.6-22.3,5.5-31.6,7.9c0.1-0.5,0.2-1.1,0.2-1.7c0-4.6-3.6-8.3-8.2-8.3s-8.2,3.7-8.2,8.3
	c0,3.3,1.9,6.1,4.6,7.4c3.9,2.2,9.1,0.9,13.1-0.7s9.2-3.4,13.9-4.2c-2.4,4.2-4.3,8.6-5.7,13.2C145.6,87.2,140.6,91.1,137,92.4
	L137,92.4z M95.4,228.8c-6.2-0.8-13.2-0.1-18,4.2c-0.4,0.3-0.4,0.9-0.2,1.3c5.7,9.7,16.1,11.3,24.1,10.5c7.4-0.7,13.2-4,22.5-10.6
	c0.2-0.1,0.1-0.4-0.1-0.4C113.9,234.3,103.8,229.9,95.4,228.8z M58.1,200.5c3.1,13.5,8,18.7,11.6,18.7c13.4,0-15.2-34.7-6.4-34.7
	c4.9,0,12,28.3,28.6,28.3c2.5,0,3.9-1.2,3.9-2.2c0-2.5-7.2-4-7.2-11.6c0-0.8,0.2-2.2,1.5-2.2c5.6,0,19.6,29.2,56.6,29.2
	c2.7,0,5.5-0.2,8.2-0.6c14.4-2.3,27.6-12.8,33.3-26.3c0.1-0.2-0.2-0.3-0.3-0.2c-6.9,6.8-16,10.6-24.8,10.6
	c-27.9,0-25.5-29.5-58.5-29.5c-4.9,0-12.8,1.4-12.8-2.2c0-3,5.3-5.7,9.1-5.7c1.3,0,2.5,0.2,3.6,0.7c1.3,0.5,2.2-0.4,1.7-1.7
	c-2.1-5.1-6.9-6.8-12-6.8c-6.8,0-15.4,5.4-26.5,5.4c-15.1,0-25.3-10.6-40-10.6c-11.7,0-25.9,7.3-23.4,19.5
	c6.4-7,15.7-11.5,25.9-11.5C50.9,167.3,56.3,192.3,58.1,200.5z M182.9,236.7c7.1,0.9,21.7-5.4,21.7-18.7c0-4.5-2.2-9.5-7.2-9.5
	c-5.3,0-10.5,6.2-11.2,12.7C185.5,227.1,184.9,233.2,182.9,236.7z"/>
</svg>
