<svg xmlns="http://www.w3.org/2000/svg" xmlns:xlink="http://www.w3.org/1999/xlink" xmlns:inkscape="http://www.inkscape.org/namespaces/inkscape" version="1.1" width="375" height="375" viewBox="0 0 375 375">
<defs>
<clipPath id="clip_1">
<path transform="matrix(1,0,0,-1,0,375)" d="M0 375H375V0H0Z"/>
</clipPath>
</defs>
<g inkscape:groupmode="layer" inkscape:label="Layer 2">
</g>
<g inkscape:groupmode="layer" inkscape:label="Layer 1">
<path transform="matrix(1,0,0,-1,0,375)" d="M0 0H375V375H0Z" fill="#9bc4b8"/>
<path transform="matrix(1,0,0,-1,0,375)" d="M359.25 359.25H15.75V15.75H359.25ZM367.5 8.25H7.5V366.75H367.5Z" fill="#fffffd"/>
<path transform="matrix(1,0,0,-1,94.9082,246.4068)" d="M0 0V25.905H3.556V15.268H17.518V25.905H21.073V0H17.518V12.21H3.556V0Z" fill="#ffffff"/>
<g clip-path="url(#clip_1)">
<path transform="matrix(1,0,0,-1,137.6182,233.8433)" d="M0 0C0-3.122 .87-5.581 2.61-7.377 4.352-9.174 6.535-10.072 9.161-10.072 11.837-10.072 14.038-9.165 15.768-7.351 17.495-5.537 18.36-2.963 18.36 .371 18.36 2.479 17.99 4.32 17.251 5.894 16.512 7.466 15.431 8.686 14.008 9.551 12.585 10.417 10.987 10.85 9.217 10.85 6.7 10.85 4.535 10.017 2.721 8.35 .906 6.683 0 3.899 0 0M-3.665 .054C-3.665 4.353-2.468 7.719-.074 10.152 2.32 12.584 5.411 13.801 9.198 13.801 11.678 13.801 13.913 13.229 15.904 12.087 17.896 10.944 19.413 9.351 20.458 7.307 21.503 5.263 22.024 2.945 22.024 .354 22.024-2.273 21.475-4.624 20.376-6.697 19.276-8.771 17.719-10.34 15.703-11.406 13.688-12.473 11.513-13.005 9.18-13.005 6.651-13.005 4.391-12.416 2.4-11.238 .408-10.061-1.1-8.452-2.126-6.414-3.152-4.376-3.665-2.221-3.665 .054" fill="#ffffff"/>
<path transform="matrix(1,0,0,-1,177.248,246.4068)" d="M0 0V25.905H5.351L11.709 7.562C12.295 5.854 12.723 4.576 12.991 3.729 13.297 4.671 13.773 6.055 14.421 7.881L20.853 25.905H25.635V0H22.208V21.682L14.402 0H11.196L3.427 22.053V0Z" fill="#ffffff"/>
<path transform="matrix(1,0,0,-1,221.8262,246.4068)" d="M0 0V25.905H19.423V22.848H3.555V14.914H18.415V11.875H3.555V3.057H20.046V0Z" fill="#ffffff"/>
<path transform="matrix(1,0,0,-1,258.708,238.0835)" d="M0 0 3.354 .282C3.512-1.014 3.882-2.077 4.462-2.907 5.042-3.737 5.943-4.409 7.165-4.922 8.386-5.435 9.761-5.69 11.288-5.69 12.644-5.69 13.841-5.496 14.879-5.107 15.917-4.719 16.69-4.186 17.197-3.508 17.704-2.831 17.957-2.092 17.957-1.29 17.957-.478 17.713 .232 17.225 .839 16.735 1.445 15.93 1.955 14.806 2.367 14.085 2.639 12.491 3.06 10.023 3.631 7.556 4.202 5.827 4.741 4.838 5.248 3.555 5.896 2.599 6.699 1.97 7.66 1.341 8.62 1.026 9.694 1.026 10.885 1.026 12.192 1.411 13.414 2.181 14.551 2.95 15.688 4.074 16.551 5.553 17.14 7.03 17.729 8.674 18.023 10.481 18.023 12.473 18.023 14.229 17.714 15.749 17.096 17.271 16.478 18.439 15.567 19.259 14.365 20.077 13.164 20.517 11.804 20.578 10.284L17.17 10.036C16.986 11.674 16.366 12.91 15.31 13.747 14.253 14.584 12.692 15.002 10.628 15.002 8.478 15.002 6.911 14.622 5.928 13.862 4.944 13.103 4.453 12.187 4.453 11.114 4.453 10.184 4.801 9.418 5.497 8.817 6.182 8.217 7.968 7.601 10.857 6.971 13.746 6.34 15.728 5.789 16.803 5.318 18.366 4.623 19.521 3.742 20.267 2.677 21.012 1.61 21.384 .382 21.384-1.008 21.384-2.386 20.975-3.685 20.156-4.904 19.338-6.123 18.162-7.071 16.629-7.749 15.096-8.426 13.37-8.765 11.452-8.765 9.021-8.765 6.984-8.423 5.342-7.74 3.698-7.057 2.41-6.029 1.476-4.656 .541-3.284 .049-1.732 0 0" fill="#ffffff"/>
<path transform="matrix(1,0,0,-1,112.0018,129.202)" d="M0 0 29.891-47.933 31.255-47.818V0H45.531V-74.569H30.493L-1.272-23.302-2.426-23.424V-74.569H-16.702V0Z" fill="#ffffff"/>
<path transform="matrix(1,0,0,-1,227.6479,145.2594)" d="M0 0-10.995-6.539C-11.232-6.425-11.871-6.462-12.013-6.37-12.137-6.29-13.085-4.121-13.315-3.722-17.211 3.032-23.972 5.083-31.512 4.274-47.379 2.572-49.543-13.479-48.353-26.562-47.105-40.294-38.993-48.986-24.481-46.417-17.137-45.117-12.635-39.733-11.195-32.606L-9.925-32.626 .989-38.278C-.907-44.619-4.143-50.465-9.64-54.328-18.834-60.788-34.507-60.884-44.567-56.456-60.902-49.266-65.247-30.949-63.444-14.522-61.614 2.156-51.866 14.568-34.685 16.733-20.968 18.462-4.782 14.42 0 0" fill="#ffffff"/>
<path transform="matrix(1,0,0,-1,246.2392,129.202)" d="M0 0V-62.094H33.542V-74.569H-14.692V0Z" fill="#ffffff"/>
</g>
</g>
</svg>
