<svg fill="none" height="25" viewBox="0 0 254 25" width="254" xmlns="http://www.w3.org/2000/svg" xmlns:xlink="http://www.w3.org/1999/xlink"><clipPath id="a"><path d="m.75 0h252.5v25h-252.5z"/></clipPath><g clip-path="url(#a)" fill="#031098"><path d="m17.2301 16.3808c0 5.4818-3.5364 6.6254-7.1595 6.6254-3.62319 0-7.1596-1.1411-7.1596-6.6254v-12.83814h-2.161v12.83814c0 3.8111 1.05324 8.6192 9.3206 8.6192 8.2673 0 9.3205-4.8081 9.3205-8.6192v-12.83814h-2.161z"/><path d="m25.5173 3.54266h-2.161v20.93034h15.3971v-1.9939h-13.2361z"/><path d="m35.4425 5.5365h8.183v18.9365h2.161v-18.9365h8.1806v-1.99384h-18.5246z"/><path d="m70.2341 14.3298v-.0572c2.7186-.6166 4.089-2.8441 4.089-5.07162 0-4.39788-3.2415-5.65832-6.7804-5.65832h-11.365v20.92784h2.1635v-9.2035h8.3837c3.5959 0 4.9986 1.2306 5.0556 4.9249.0297 2.2847.1759 3.8385.5551 4.2811h2.337c-.4982-.4699-.6716-3.0206-.7286-4.3383-.1487-3.4283-.7608-5.3351-3.7099-5.8025zm-11.8929-1.0541v-7.7392h9.3502c1.9876 0 4.2948.58423 4.2948 3.66448 0 3.08022-2.1313 4.07472-4.5004 4.07472z"/><path d="m84.8307 3.54266-9.4642 20.92784h2.3369l2.8326-6.3594h10.9884l2.7756 6.3594h2.5129l-9.4643-20.92784h-2.5154zm-3.4174 12.57454 4.6442-10.40419 4.5871 10.40419z"/><path d="m209.051 3.50287h-18.336-.097-16.529v20.96513h16.861v-1.9964h-14.696v-7.8684h13.935v-1.9988h-13.935v-7.10521h14.364.097 8.099v18.96881h2.166v-18.96881h8.071.126 8.07v18.96881h2.166v-18.96881h8.197v-1.99632h-18.433z"/><path d="m158.558 3.50287h-2.166v20.96513h15.424v-1.9964h-13.258z"/><path d="m231.989 14.6032h13.938v-1.9988h-13.938v-7.10521h14.463v-1.99632h-16.629v20.96513h16.86v-1.9964h-14.694z"/><path d="m142.001 2.97583c-5.943 0-11.358 3.61227-11.358 11.01087 0 7.3985 5.417 11.0133 11.358 11.0133 5.94 0 11.357-3.6123 11.357-11.0133 0-7.40109-5.415-11.01087-11.357-11.01087zm0 20.02537c-4.597 0-9.016-2.6999-9.016-9.0145 0-6.31467 4.421-9.01455 9.016-9.01455 4.594 0 9.015 2.70237 9.015 9.01455 0 6.3121-4.418 9.0145-9.015 9.0145z"/><path d="m113.152 22.0018-8.077-18.49893h-2.52l9.338 20.96513h2.342l9.248-20.96513h-2.339z"/><path d="m127.367 3.50287h-2.164v20.96753h2.164z"/><path d="m250.923 0c-1.279 0-2.305 1.05658-2.305 2.34437s1.026 2.34935 2.305 2.34935 2.325-1.05907 2.325-2.34935c0-1.29027-1.041-2.34437-2.325-2.34437zm0 4.23379c-1.014 0-1.812-.82041-1.812-1.88693 0-1.06653.798-1.881963 1.812-1.881963s1.812.812943 1.812 1.881963c0 1.06901-.798 1.88693-1.812 1.88693z"/><path d="m251.894 1.84965c0-.44998-.369-.80052-.862-.80052h-.88v2.55321h.481v-.95217h.191l.533.95217h.55l-.57-.99692c.329-.10939.557-.40026.557-.75826zm-.931.38286h-.33v-.76323h.33c.285 0 .443.13922.443.38783 0 .23369-.158.37291-.443.37291z"/></g></svg>