<svg xmlns="http://www.w3.org/2000/svg" fill="none" viewBox="0 0 120 64" height="64" width="120">
<path fill="#231F20" d="M103.439 47.8407L15.4702 47.8424L15.469 43.3439L103.438 43.3426L103.439 47.8407Z" clip-rule="evenodd" fill-rule="evenodd"></path>
<path fill="#231F20" d="M42.5301 16.6098C42.5301 16.6098 39.6522 23.1655 39.0257 24.5847C38.4075 23.1668 35.5266 16.6073 35.5266 16.6073H32.0135L32.0086 40.908L36.0646 40.9173L35.8928 25.4578L39.0406 33.036L42.1672 25.4544L41.9979 40.9148H46.0453L46.0424 16.606L42.5301 16.6098ZM53.8995 37.247C53.8982 36.5157 53.9011 30.8352 53.8953 30.104C54.6128 30.1032 59.2039 30.104 59.2039 30.104L59.2051 26.4291C59.2051 26.4291 54.6133 26.4312 53.9003 26.4324C53.8982 25.7247 53.9015 20.9882 53.8995 20.2793C54.6277 20.2784 59.6959 20.2768 59.6959 20.2768L59.6971 16.6085L59.28 16.6052L49.7793 16.6064L49.7826 40.916L59.9992 40.9127V37.247C59.9992 37.247 54.6356 37.2461 53.8995 37.247ZM67.702 37.2449C67.7094 36.4137 67.7028 16.6098 67.7028 16.6098L67.2857 16.6064L63.5864 16.6052L63.5822 40.9185L73.4909 40.9198V37.2491C73.4909 37.2491 68.4385 37.2474 67.702 37.2449ZM80.2693 26.5193C80.2684 25.7801 80.2717 21.0277 80.2693 20.2969C82.3246 20.3368 83.4658 21.3983 83.465 23.3183C83.4679 25.2928 82.2621 26.4715 80.2693 26.5193ZM80.4224 37.2457L80.2701 37.2444C80.2726 36.517 80.2701 30.9368 80.2726 30.2136C80.3297 30.2136 80.4174 30.2077 80.4174 30.2077C83.7745 30.2132 84.0393 32.9718 84.0393 33.8109C84.0368 35.9965 82.7177 37.2465 80.4224 37.2457ZM84.636 27.8508C86.5188 26.5894 87.5913 24.8428 87.588 22.8263C87.588 19.7672 84.9219 16.6043 80.4559 16.6073L76.1504 16.6043L76.1421 40.9139H79.6552C85.9221 40.9139 88.1611 37.1941 88.1603 33.716C88.1603 31.0245 86.9367 29.0786 84.636 27.8508Z" clip-rule="evenodd" fill-rule="evenodd"></path>
<path fill="#231F20" d="M8.51587 48.4367C10.2174 48.4086 11.6756 48.0741 13.2447 46.6981L13.4036 46.5361L13.4057 41.6262L12.8206 42.1328C11.1253 43.5319 10.157 43.7237 8.98718 43.7036C6.22925 43.6549 4.84181 40.249 4.84429 32.0365C4.84429 23.8148 6.14856 20.466 8.7985 20.3758C10.2447 20.3271 11.2585 20.7863 12.2437 21.5259C12.7171 21.881 13.0577 22.2978 13.0577 22.2978L13.0602 17.3603L12.835 17.1739C11.4273 16.1069 9.91574 15.6628 8.59905 15.6313C7.41684 15.6019 6.34718 15.9315 5.3967 16.5149C2.08429 18.5486 0.206909 24.0256 0.206909 32.2238C0.208978 42.5258 3.26277 48.5236 8.51587 48.4367Z" clip-rule="evenodd" fill-rule="evenodd"></path>
<path fill="#231F20" d="M23.7883 32.0504C23.1626 32.0517 21.7772 32.0517 21.1524 32.0533C21.2836 31.3356 22.0317 27.2098 22.4695 24.7971C22.9119 27.2094 23.6654 31.3326 23.7883 32.0504ZM24.531 16.465L24.1855 16.4692L20.4523 16.4675L15.4698 40.9122L19.4952 40.9164C19.4952 40.9164 20.3757 36.3348 20.4912 35.7241C21.0374 35.7212 23.9658 35.7241 24.5207 35.7253C24.625 36.3365 25.4323 40.9143 25.4323 40.9143L29.4721 40.9185L24.531 16.465Z" clip-rule="evenodd" fill-rule="evenodd"></path>
<path fill="#231F20" d="M117.769 31.1299C117.985 31.1316 118.127 31.0094 118.125 30.8382C118.127 30.6468 117.982 30.5519 117.683 30.5485L117.304 30.5502L117.301 31.1316L117.769 31.1299ZM116.873 30.2098H117.866C118.37 30.2123 118.571 30.4843 118.571 30.8163C118.572 31.1312 118.357 31.365 118.011 31.4082V31.4199C118.182 31.4787 118.265 31.5992 118.411 31.8439L118.702 32.3531H118.17L117.995 32.0084C117.788 31.5841 117.661 31.4749 117.41 31.4753L117.301 31.4749L117.3 32.3535L116.874 32.351L116.873 30.2098ZM117.763 32.8971C118.641 32.8962 119.354 32.1721 119.355 31.2764C119.352 30.3756 118.639 29.6494 117.764 29.6515C116.892 29.6515 116.182 30.3777 116.182 31.2713C116.184 32.1726 116.889 32.8971 117.763 32.8971ZM117.765 29.2549C118.858 29.2532 119.738 30.1565 119.738 31.2739C119.736 32.3929 118.857 33.2912 117.766 33.2929C116.675 33.2912 115.795 32.39 115.795 31.2739C115.798 30.1565 116.677 29.2536 117.765 29.2549Z" clip-rule="evenodd" fill-rule="evenodd"></path>
<path fill="#231F20" d="M98.3433 32.0974C97.7123 32.0995 96.3273 32.0949 95.6884 32.0966C95.8163 31.3771 96.5739 27.2442 97.0126 24.8244C97.4595 27.2438 98.2134 31.3784 98.3433 32.0974ZM99.084 16.4717L94.9924 16.4746L90 40.9815L94.0428 40.9865L95.0342 35.7816C95.5899 35.7778 98.5138 35.7803 99.0687 35.7774C99.1821 36.3911 99.9873 40.9836 99.9873 40.9836L104.034 40.9798L99.084 16.4717ZM110.816 34.4464L110.814 47.9276L106.35 47.9288L106.353 16.0603L110.819 16.0587L110.815 28.6399L114.172 16.0494H118.789C118.313 17.584 114.406 30.886 114.286 31.2634L114.274 31.2991L114.287 31.3347C114.415 31.7045 119.393 46.2838 119.969 47.9251L115.301 47.9213L110.816 34.4464Z" clip-rule="evenodd" fill-rule="evenodd"></path>
</svg>